<svg width="74" height="74" viewBox="0 0 74 74" fill="none" xmlns="http://www.w3.org/2000/svg">
<rect width="74" height="74" rx="37" fill="#FFE1F1"/>
<path d="M23.5156 33.1748H18.3594V37.7375H23.5156V33.1748Z" fill="#3E0097"/>
<path d="M23.5156 38.748H18.3594V43.3107H23.5156V38.748Z" fill="#3E0097"/>
<path d="M29.8515 33.1748H24.6953V37.7375H29.8515V33.1748Z" fill="#3E0097"/>
<path d="M29.8515 38.748H24.6953V43.3107H29.8515V38.748Z" fill="#3E0097"/>
<path d="M36.2617 33.1748H31.1055V37.7375H36.2617V33.1748Z" fill="#3E0097"/>
<path d="M36.2617 38.748H31.1055V43.3107H36.2617V38.748Z" fill="#3E0097"/>
<path d="M42.5156 33.1748H37.3594V37.7375H42.5156V33.1748Z" fill="#3E0097"/>
<path d="M42.5156 38.748H37.3594V43.3107H42.5156V38.748Z" fill="#3E0097"/>
<path d="M48.8515 33.1748H43.6953V37.7375H48.8515V33.1748Z" fill="#3E0097"/>
<path d="M48.8515 38.748H43.6953V43.3107H48.8515V38.748Z" fill="#3E0097"/>
<path d="M55.2617 33.1748H50.1055V37.7375H55.2617V33.1748Z" fill="#3E0097"/>
<path d="M55.2617 38.748H50.1055V43.3107H55.2617V38.748Z" fill="#3E0097"/>
<path d="M23.5156 44.3223H18.3594V48.8849H23.5156V44.3223Z" fill="#3E0097"/>
<path d="M23.5156 49.8955H18.3594V54.4582H23.5156V49.8955Z" fill="#3E0097"/>
<path d="M29.8515 44.3223H24.6953V48.8849H29.8515V44.3223Z" fill="#3E0097"/>
<path d="M29.8515 49.8955H24.6953V54.4582H29.8515V49.8955Z" fill="#3E0097"/>
<path d="M36.2617 44.3223H31.1055V48.8849H36.2617V44.3223Z" fill="#3E0097"/>
<path d="M36.2617 49.8955H31.1055V54.4582H36.2617V49.8955Z" fill="#3E0097"/>
<path d="M42.5156 44.3223H37.3594V48.8849H42.5156V44.3223Z" fill="#3E0097"/>
<path d="M42.5156 49.8955H37.3594V54.4582H42.5156V49.8955Z" fill="#3E0097"/>
<path d="M48.8515 44.3223H43.6953V48.8849H48.8515V44.3223Z" fill="#3E0097"/>
<path d="M48.8515 49.8955H43.6953V54.4582H48.8515V49.8955Z" fill="#3E0097"/>
<path d="M55.2617 44.3223H50.1055V48.8849H55.2617V44.3223Z" fill="#3E0097"/>
<path d="M55.2617 49.8955H50.1055V54.4582H55.2617V49.8955Z" fill="#3E0097"/>
<path d="M48.8244 20.9334V18.768C48.8088 18.5592 48.7148 18.364 48.5613 18.2216C48.4078 18.0791 48.2061 18 47.9967 18C47.7873 18 47.5857 18.0791 47.4322 18.2216C47.2787 18.364 47.1847 18.5592 47.169 18.768V20.9334H25.2691V18.768C25.2535 18.5592 25.1595 18.364 25.006 18.2216C24.8525 18.0791 24.6508 18 24.4414 18C24.232 18 24.0304 18.0791 23.8769 18.2216C23.7234 18.364 23.6294 18.5592 23.6137 18.768V20.9334H16V56.9062H57.5927V20.9334H48.8244ZM23.6137 22.0787V25.0741C23.185 25.2639 22.8345 25.5953 22.6209 26.0127C22.4074 26.4301 22.3438 26.9083 22.4408 27.367C22.5378 27.8257 22.7895 28.2372 23.1537 28.5325C23.5179 28.8277 23.9725 28.9889 24.4414 28.9889C24.9103 28.9889 25.3649 28.8277 25.7291 28.5325C26.0934 28.2372 26.3451 27.8257 26.4421 27.367C26.539 26.9083 26.4754 26.4301 26.2619 26.0127C26.0484 25.5953 25.6978 25.2639 25.2691 25.0741V22.0787H47.169V25.0741C46.7403 25.2639 46.3898 25.5953 46.1762 26.0127C45.9627 26.4301 45.8991 26.9083 45.9961 27.367C46.0931 27.8257 46.3448 28.2372 46.709 28.5325C47.0732 28.8277 47.5278 28.9889 47.9967 28.9889C48.4656 28.9889 48.9202 28.8277 49.2844 28.5325C49.6487 28.2372 49.9004 27.8257 49.9973 27.367C50.0943 26.9083 50.0307 26.4301 49.8172 26.0127C49.6036 25.5953 49.2531 25.2639 48.8244 25.0741V22.0787H56.452V30.1979H17.1407V22.0787H23.6137ZM17.1221 55.7795V31.8672H56.452V55.7934L17.1221 55.7795Z" fill="#3E0097"/>
</svg>
