<svg width="48" height="48" viewBox="0 0 48 48" fill="none" xmlns="http://www.w3.org/2000/svg">
<path fill-rule="evenodd" clip-rule="evenodd" d="M8.03037 38.9366H11.4053C10.0146 38.2344 9.06303 36.7922 9.06303 35.1265V32.0168C9.06303 26.5052 13.5319 22.0365 19.0433 22.0365H22.7367C25.9672 22.0365 28.899 23.3105 31.0594 25.3817C31.645 25.9238 31.0199 26.8456 30.2661 26.8456H23.6785C23.0612 26.8456 22.4895 27.0593 22.0405 27.4272C21.5914 27.7932 21.267 28.3095 21.1424 28.9188L20.2779 33.1226C20.1809 33.5914 19.7477 33.908 19.2709 33.8605L15.4054 33.4589C14.988 33.4154 14.6141 33.72 14.5726 34.1374C14.5291 34.5548 14.8337 34.9287 15.2511 34.9702L18.7823 35.3362C19.0514 35.3659 19.2729 35.4925 19.4332 35.7121C19.5934 35.9297 19.6488 36.1789 19.5954 36.442L19.267 38.0385C19.1839 38.45 19.449 38.8516 19.8585 38.9346C20.27 39.0177 20.6716 38.7526 20.7547 38.3411L22.63 29.2193C22.6815 28.966 22.814 28.7524 22.998 28.604C23.18 28.4557 23.4174 28.3686 23.6785 28.3686H39.655C39.8271 28.3686 39.9834 28.4023 40.1179 28.4656C40.2544 28.5309 40.377 28.6298 40.4838 28.7603C40.5907 28.8909 40.6639 29.0333 40.6995 29.1817C40.7351 29.3281 40.7371 29.4883 40.7034 29.6545L38.5234 40.2562C38.4324 40.6933 38.0585 41 37.6114 41H8.03069C7.46293 41 7 40.5351 7 39.9693C7 39.4015 7.46489 38.9386 8.03069 38.9386L8.03037 38.9366ZM21.4569 7C25.2057 7 28.2441 10.0386 28.2441 13.7872C28.2441 17.536 25.2055 20.5744 21.4569 20.5744C17.7083 20.5744 14.6697 17.5358 14.6697 13.7872C14.6697 10.0384 17.7083 7 21.4569 7ZM30.834 32.6402C31.7203 32.6402 32.3553 33.3247 32.2524 34.1693C32.1496 35.014 31.3464 35.7005 30.4601 35.7005C29.5738 35.7005 28.9388 35.016 29.0437 34.1693C29.1465 33.3246 29.9497 32.6402 30.836 32.6402H30.834Z" fill="white"/>
</svg>
