<svg width="164" height="163" viewBox="0 0 164 163" fill="none" xmlns="http://www.w3.org/2000/svg">
<g clip-path="url(#clip0_3001_1758)">
<path d="M82 163C127.287 163 164 126.511 164 81.5C164 36.4888 127.287 0 82 0C36.7127 0 0 36.4888 0 81.5C0 126.511 36.7127 163 82 163Z" fill="#FFD100"/>
<path d="M30.457 86.8398L38.7774 78.3969C40.9229 81.0667 46.0163 84.6207 52.3656 84.6207C59.3428 84.6207 63.3722 80.616 63.3722 75.0162C63.3722 69.4164 59.3428 65.4983 52.3656 65.4983C47.8129 65.4983 44.2196 67.9948 42.7893 69.9365L33.1258 68.6016L35.6376 33.0439H73.3845V45.2143H47.7257L46.8361 57.038C48.3537 55.8764 52.1039 54.3681 56.674 54.3681C68.483 54.3681 77.2394 62.9845 77.2394 74.9815C77.2394 86.9785 67.855 96.5831 53.5343 96.5831C42.6323 96.5831 33.9457 90.9833 30.457 86.8052V86.8398Z" fill="#3E0097"/>
<path d="M79.875 64.1634C79.875 43.8967 91.9456 31.7263 106.702 31.7263C121.459 31.7263 133.53 43.8967 133.53 64.1634C133.53 84.43 121.459 96.6004 106.702 96.6004C91.9456 96.6004 79.875 84.326 79.875 64.1634ZM120.116 64.1634C120.116 50.3806 113.854 43.8967 106.702 43.8967C99.5508 43.8967 93.2887 50.3806 93.2887 64.1634C93.2887 77.9461 99.5508 84.3433 106.702 84.3433C113.854 84.3433 120.116 77.9461 120.116 64.1634Z" fill="#3E0097"/>
<path d="M136.56 94.6239V80.269H146.66V83.9618H140.468V94.6239H136.543H136.56Z" fill="#3E0097"/>
<path d="M58.3125 141.537V127.182H64.8188C68.1155 127.182 69.8773 128.933 69.8773 130.962C69.8773 132.435 68.9353 133.614 67.8015 133.961C68.9179 134.308 70.6099 135.504 70.6099 137.55C70.6099 139.699 68.7609 141.555 65.3421 141.555H58.3299L58.3125 141.537ZM62.2372 132.713H64.5048C65.3421 132.713 65.8479 132.193 65.8479 131.482C65.8479 130.771 65.3246 130.251 64.5048 130.251H62.2372V132.713ZM62.2372 138.451H65.0281C65.9526 138.451 66.5805 137.827 66.5805 137.012C66.5805 136.197 65.97 135.573 65.0281 135.573H62.2372V138.451Z" fill="#3E0097"/>
<path d="M79.6636 141.537V130.979C79.1403 131.413 78.2682 131.673 77.082 131.673V129.02C78.8612 128.933 79.7508 127.893 80.1695 127.182H83.5709V141.537H79.6462H79.6636Z" fill="#3E0097"/>
<path d="M94.5957 127.182H105.55V141.537H101.625V130.875H98.346V131.69C98.1541 139.786 96.2179 141.936 93.1479 141.936C92.4502 141.936 91.6827 141.711 91.3164 141.52V137.931C91.5432 138.018 91.9269 138.139 92.2409 138.139C93.4794 138.139 94.4038 137.116 94.5085 131.707L94.5957 127.182Z" fill="#3E0097"/>
<path d="M44.3398 120.3V105.945H54.858V109.326H48.2645V110.973H51.0554C54.1429 110.973 56.2186 112.914 56.2186 115.584C56.2186 118.254 54.1603 120.3 51.0554 120.3H44.3573H44.3398ZM48.2645 116.919H50.8461C51.6659 116.919 52.2939 116.312 52.2939 115.584C52.2939 114.856 51.6834 114.249 50.8461 114.249H48.2645V116.919Z" fill="#3E0097"/>
<path d="M58.9727 120.3V105.945H70.0141V109.43H62.8974V111.441H68.357V114.717H62.8974V116.815H70.2234V120.3H58.9901H58.9727Z" fill="#3E0097"/>
<path d="M75.1426 105.945H86.0968V120.3H82.1722V109.638H78.8928V110.453C78.701 118.549 76.7648 120.699 73.6948 120.699C72.9971 120.699 72.2296 120.473 71.8633 120.283V116.694C72.09 116.781 72.4738 116.902 72.7878 116.902C74.0262 116.902 74.9507 115.879 75.0554 110.47L75.1426 105.945Z" fill="#3E0097"/>
<path d="M89.9003 120.3V105.945H93.825V111.475L98.5695 105.945H103.105L97.9415 111.892L103.506 120.3H98.9707L95.3599 114.873L93.8075 116.607V120.3H89.8828H89.9003Z" fill="#3E0097"/>
<path d="M104.136 120.3L109.561 105.945H113.974L119.399 120.3H115.23L114.253 117.526H109.212L108.236 120.3H104.102H104.136ZM110.224 114.353H113.277L111.794 109.638H111.707L110.224 114.353Z" fill="#3E0097"/>
</g>
<defs>
<clipPath id="clip0_3001_1758">
<rect width="164" height="163" fill="white"/>
</clipPath>
</defs>
</svg>
