<svg width="48" height="48" viewBox="0 0 48 48" fill="none" xmlns="http://www.w3.org/2000/svg">
<path d="M31.0573 10.5547C31.8775 8.57471 30.9373 6.3048 28.9573 5.48467C26.9774 4.66453 24.7075 5.60474 23.8873 7.58468C23.0672 9.56462 24.0074 11.8345 25.9873 12.6547C27.9673 13.4748 30.2372 12.5346 31.0573 10.5547Z" fill="white"/>
<path d="M37.9429 19.5305C37.532 18.7545 36.5734 18.4806 35.8429 18.8914L31.8714 21.0826L26.7129 14.5546C26.439 14.2351 26.0738 14.0525 25.7085 13.9612C25.5716 13.9155 25.4803 13.9155 25.3433 13.9155L15.3002 14.372C15.2546 14.372 15.2089 14.372 15.1633 14.372C14.4329 14.4177 13.7938 15.0111 13.7025 15.7872L13.0634 23.0913C12.9721 23.9586 13.6112 24.689 14.4785 24.7803C15.3459 24.8716 16.0763 24.2325 16.1676 23.3652L16.7154 17.4306L20.3674 17.2937C20.3218 17.385 20.3218 17.4763 20.2761 17.5676L18.7697 24.7347C18.7697 24.7803 18.7697 24.826 18.7697 24.8716C18.6327 25.6477 18.9523 26.4237 19.637 26.8803L27.8541 31.8105L23.8825 35.7821C23.1521 36.5125 23.1521 37.6994 23.8825 38.4298C24.6129 39.1602 25.7998 39.1602 26.5303 38.4298L32.0083 32.9518C32.0996 32.8605 32.1909 32.7235 32.2822 32.6322C32.3279 32.5409 32.4192 32.4953 32.4648 32.404C33.0126 31.4909 32.6931 30.3497 31.8257 29.8019L25.5716 26.0129L26.8498 19.8044L30.2279 24.0499C30.7301 24.6434 31.5518 24.826 32.2366 24.4151L37.3038 21.6305C38.0798 21.2196 38.3537 20.3066 37.9429 19.5305Z" fill="white"/>
<path d="M19.7735 28.0222C18.8148 27.657 17.7192 28.1135 17.3084 29.0722L14.752 35.5545L9.54781 40.8043C8.8174 41.5348 8.8174 42.7217 9.54781 43.4521C10.2782 44.1825 11.4651 44.1825 12.1955 43.4521L17.7192 37.9284C17.9475 37.7001 18.1301 37.3806 18.2214 37.061L20.8235 30.4873C21.1887 29.5287 20.7322 28.4331 19.7735 28.0222Z" fill="white"/>
</svg>
