<svg width="74" height="74" viewBox="0 0 74 74" fill="none" xmlns="http://www.w3.org/2000/svg">
<rect width="74" height="74" rx="37" fill="#FFE1F1"/>
<g clip-path="url(#clip0_3001_6254)">
<path d="M37.3601 17.9998C41.2678 17.9998 45.1777 17.9977 49.0876 18.0019C51.5835 18.0062 52.7994 19.2669 52.5908 21.75C52.0647 28.0109 51.4898 34.2654 50.9339 40.5242C50.6039 44.2595 50.2525 47.9948 49.9543 51.7343C49.7414 54.392 48.1314 55.9764 45.4461 55.9849C40.0348 56.0041 34.6236 56.0019 29.2145 55.9849C26.6036 55.9785 24.9468 54.524 24.7041 51.9345C24.2036 46.6127 23.7756 41.2845 23.3049 35.9606C22.9131 31.5119 22.5021 27.0611 22.0996 22.6103C22.0655 22.2376 22.0187 21.8628 22.0038 21.4902C21.9229 19.3116 23.1452 18.019 25.3493 18.0083C29.3529 17.9913 33.3565 18.0041 37.3601 18.0041V17.9998ZM37.3793 19.6183C33.4055 19.6183 29.4338 19.6161 25.4601 19.6183C23.9821 19.6183 23.4923 20.1528 23.6244 21.6392C24.5018 31.5417 25.3791 41.4442 26.265 51.3467C26.4737 53.6743 27.2745 54.3813 29.6319 54.3813C34.762 54.3813 39.8921 54.3813 45.0223 54.3813C47.3669 54.3813 48.1996 53.6743 48.4147 51.351C48.8874 46.2783 49.3219 41.1993 49.7733 36.1245C50.1992 31.3288 50.6188 26.533 51.0575 21.7393C51.198 20.2124 50.6784 19.6204 49.1089 19.6183C45.199 19.6183 41.2891 19.6183 37.3771 19.6183H37.3793Z" fill="#3E0097"/>
<path d="M48.925 29.419C48.7461 31.5784 48.5651 33.8464 48.3713 36.1144C48.0242 40.1627 47.6664 44.211 47.3172 48.2593C47.2341 49.224 47.1915 50.1929 47.0978 51.1576C46.9679 52.5078 46.229 53.1956 44.8895 53.1978C39.853 53.2063 34.8187 53.2063 29.7823 53.1978C28.4385 53.1956 27.7251 52.6015 27.5995 51.2662C27.2098 47.0965 26.8669 42.9205 26.507 38.7465C26.2579 35.8503 26.03 32.952 25.7404 30.06C25.6659 29.3125 25.8852 28.9548 26.5816 28.6545C30.0421 27.1595 33.4579 27.2447 36.8269 28.876C39.1439 29.9983 41.5354 30.8373 44.1313 30.5094C45.7179 30.3092 47.2682 29.8045 48.9229 29.4169L48.925 29.419Z" fill="#3E0097"/>
<path d="M37.457 27.8813C41.2604 26.2415 44.8658 26.0456 48.5031 27.9558C45.8837 29.8639 41.3563 30.1173 37.457 27.8813Z" fill="#3E0097"/>
</g>
<defs>
<clipPath id="clip0_3001_6254">
<rect width="30.6125" height="38" fill="white" transform="translate(22 18)"/>
</clipPath>
</defs>
</svg>
