<svg width="74" height="74" viewBox="0 0 74 74" fill="none" xmlns="http://www.w3.org/2000/svg">
<rect width="74" height="74" rx="37" fill="#FFE1F1"/>
<path d="M38.0016 18.7413L52.0995 18.6763L51.5175 16H38.7113L38.0016 18.7413ZM44.2156 32.2769H58.7854V28.4063L52.4939 19.7431L38.3356 19.8015L44.0799 27.8997C44.16 27.9949 44.2032 28.1139 44.2032 28.2373V28.9101L44.2156 32.2769ZM43.136 32.2769V28.6918L37.3053 20.1931L31.1412 28.7002L31.165 32.2744L43.136 32.2769ZM44.3 47.5452L58.7873 47.4954V33.3349H44.2264L44.3 47.5452ZM58.7851 48.5512L44.3105 48.6031L44.3365 54.1785H58.7872L58.7851 48.5512ZM39.5743 47.5647L43.1378 47.5495V33.3348H31.169L31.1928 37.6598C31.526 37.7355 31.8397 37.8761 32.121 38.073C32.4196 38.2829 32.6749 38.5469 32.8739 38.8519L33.8303 40.2993C33.8865 40.3837 33.9471 40.4616 34.0142 40.533C34.025 40.5395 34.0336 40.5482 34.0423 40.5568C34.118 40.6369 34.2046 40.7104 34.2976 40.771L35.7191 41.736C36.0631 41.9632 36.3551 42.2639 36.5715 42.6144C36.7792 42.9605 36.9004 43.35 36.9242 43.7524L37.0086 45.2107V45.2085C37.0216 45.453 37.0821 45.691 37.1903 45.9095C37.2639 46.0566 37.3829 46.1756 37.5278 46.2514L38.7524 46.8701C38.8541 46.9199 38.9515 46.9783 39.0445 47.0432C39.2436 47.1882 39.4231 47.3613 39.5746 47.556L39.5743 47.5647ZM41.1408 54.1807H43.1378V48.6076L39.9897 48.6163V48.6141C39.9941 48.811 39.9486 49.0079 39.8599 49.1831C39.8404 49.2264 39.8166 49.2675 39.7907 49.3064C39.782 49.3172 39.7755 49.3302 39.7647 49.3454L38.9101 50.5419C38.869 50.8794 38.9361 51.2212 39.1026 51.5176C39.2476 51.9265 39.4878 52.2943 39.8036 52.5886H39.7993C39.8101 52.5951 39.8188 52.6016 39.8274 52.6081C40.1844 52.7985 40.4981 53.0646 40.7405 53.3892C40.9157 53.6293 41.052 53.8954 41.145 54.1789L41.1408 54.1807ZM38.6678 57.4651L36.3441 55.1089C36.3246 55.0895 36.3073 55.07 36.29 55.0505L16.9325 35.4205C16.8719 35.3794 16.8049 35.3534 16.7335 35.3383C16.6123 35.3166 16.489 35.3296 16.3765 35.3772C16.264 35.4227 16.1666 35.4984 16.0995 35.6001C16.0346 35.7018 16 35.8208 16 35.9419V57.3853C16 57.725 16.2748 57.9998 16.6145 57.9998H38.0579C38.3067 58.0063 38.5317 57.8548 38.6226 57.6233C38.6442 57.5714 38.6593 57.5173 38.668 57.4632L38.6678 57.4651ZM28.6265 42.9147L34.4639 46.5517H34.4595C34.5893 46.6339 34.6781 46.768 34.704 46.9216L35.5868 52.5513L37.3652 54.3297L37.3761 54.3384L39.2411 56.2077V56.2055C39.2887 56.2531 39.3341 56.3029 39.3752 56.357L39.9983 55.9805C40.1152 55.8983 40.1974 55.7728 40.2212 55.63C40.2688 55.3704 40.2645 55.1021 40.2125 54.8425C40.206 54.8165 40.1995 54.7905 40.1974 54.7624C40.1931 54.7386 40.1887 54.717 40.1866 54.6975C40.1368 54.4509 40.0351 54.2194 39.8858 54.0181C39.7365 53.8191 39.5461 53.6546 39.3255 53.5378C39.28 53.514 39.2324 53.4837 39.1827 53.4534C38.7088 53.038 38.3432 52.5101 38.1203 51.9195C37.8153 51.3374 37.7633 50.6559 37.9775 50.035V50.0307C37.997 49.9961 38.0186 49.9614 38.0424 49.9268V49.9225L38.9014 48.7238L38.9101 48.713L38.9144 48.7044V48.7065C38.9425 48.6005 38.9252 48.4902 38.8646 48.3993C38.856 48.3885 38.8495 48.3777 38.8451 48.3647C38.8387 48.356 38.8322 48.3474 38.83 48.3366C38.724 48.1721 38.5898 48.0272 38.4297 47.9103C38.3821 47.8779 38.3302 47.8476 38.2783 47.8195L37.0515 47.2028C36.714 47.0319 36.4371 46.7593 36.2597 46.424C36.0758 46.067 35.9697 45.6753 35.9524 45.2751L35.8681 43.8169C35.8551 43.5854 35.7858 43.3625 35.6647 43.1634C35.5284 42.9428 35.3445 42.7545 35.1281 42.6117L33.7023 41.6489C33.553 41.5472 33.4124 41.4304 33.2847 41.3028C33.2739 41.2919 33.2653 41.2833 33.2566 41.2725C33.1419 41.1513 33.0381 41.0215 32.9472 40.883L31.9909 39.4356C31.8654 39.2408 31.7053 39.0721 31.5171 38.9358C31.331 38.8081 31.119 38.7194 30.8961 38.6761L29.1869 38.3148C28.7931 38.2348 28.421 38.0768 28.0921 37.8475C27.7784 37.6247 27.5253 37.3239 27.3587 36.9756L26.6295 35.4741V35.4762C26.5084 35.2079 26.3201 34.9743 26.0843 34.799C25.9631 34.7016 25.8074 34.6605 25.6538 34.6887L22.7242 35.3637C22.3846 35.4373 22.0276 35.3767 21.7333 35.195C21.4996 35.0543 21.2876 34.8812 21.0994 34.6844L20.1972 33.7757C19.9548 33.5377 19.639 33.3884 19.3014 33.3538C18.9315 33.317 18.5571 33.3992 18.2348 33.5874C18.0206 33.6891 17.8259 33.8254 17.6549 33.9899C17.5489 34.1067 17.4624 34.243 17.4018 34.388L17.6138 34.6H17.6116C17.6766 34.6498 17.7371 34.7017 17.7955 34.7579L20.7099 37.6766H20.7121C21.002 37.5489 21.3049 37.4494 21.6143 37.3759C22.0492 37.2677 22.497 37.2136 22.947 37.2158C26.0821 37.2179 28.6243 39.758 28.6265 42.8952L28.6265 42.9147ZM27.2591 44.2237L27.5577 43.1245C27.562 43.0467 27.562 42.9709 27.562 42.8909V42.893C27.562 40.3443 25.4958 38.276 22.9471 38.2738C22.5814 38.2738 22.2158 38.3149 21.8588 38.3993C21.7485 38.4274 21.636 38.4577 21.5278 38.4923L27.2591 44.2237ZM34.3166 51.279L33.6978 47.3239L28.4987 44.0829C28.4879 44.1326 28.4749 44.1781 28.4641 44.2278C28.3906 44.5372 28.291 44.8401 28.1656 45.13L34.3166 51.279ZM18.5139 43.8359C18.3084 44.0436 17.973 44.0436 17.7653 43.8359C17.5598 43.6304 17.5598 43.295 17.7653 43.0873L19.8272 41.0211C20.0371 40.822 20.366 40.8285 20.5693 41.0319C20.7727 41.2374 20.777 41.5663 20.578 41.774L18.5139 43.8359ZM17.8735 49.1324C17.6658 49.3401 17.3305 49.3401 17.1249 49.1324C16.9172 48.9247 16.9172 48.5893 17.1249 48.3838L22.324 43.1847C22.5317 42.9813 22.8627 42.9835 23.0683 43.189C23.2738 43.3924 23.276 43.7256 23.0726 43.9333L17.8735 49.1324ZM18.4036 53.3298C18.1937 53.5331 17.8627 53.5288 17.6571 53.3233C17.4516 53.1177 17.4494 52.7867 17.6507 52.5768L24.6977 45.5342C24.7972 45.4304 24.9335 45.372 25.0763 45.3698C25.2191 45.3698 25.3554 45.4261 25.4571 45.5277C25.5588 45.6273 25.6128 45.7657 25.6128 45.9085C25.6107 46.0513 25.5501 46.1876 25.4463 46.2872L18.4036 53.3298ZM20.7533 55.6686C20.5477 55.8763 20.2124 55.8763 20.0046 55.6686C19.7991 55.4631 19.7991 55.1277 20.0046 54.92L27.0516 47.8774C27.2593 47.6741 27.5904 47.6762 27.7959 47.8818C28.0015 48.0851 28.0037 48.4183 27.8003 48.6261L20.7533 55.6686ZM25.0047 56.2745V56.2766C24.797 56.4843 24.4617 56.4843 24.2539 56.2788C24.0462 56.0711 24.0462 55.7357 24.2518 55.528L29.4509 50.3289V50.3267C29.5526 50.2272 29.6867 50.171 29.8273 50.171C29.968 50.171 30.1043 50.2272 30.2038 50.3267C30.4115 50.5344 30.4115 50.872 30.2038 51.0797L25.0047 56.2745ZM30.7147 55.7033C30.507 55.9002 30.1803 55.8959 29.9791 55.6925C29.7757 55.4913 29.7714 55.1646 29.9661 54.9569L32.0302 52.8949C32.2357 52.6872 32.5732 52.6872 32.7809 52.8949C32.9887 53.1005 32.9887 53.4358 32.7831 53.6436L30.7147 55.7033Z" fill="#3E0097"/>
</svg>
