<svg width="48" height="48" viewBox="0 0 48 48" fill="none" xmlns="http://www.w3.org/2000/svg">
<path d="M41.2765 29.9647C40.182 29.3711 38.9947 29.5547 38.8574 29.5993C38.401 29.6902 37.9446 29.8738 37.5346 30.1465L30.1861 34.6194C30.1397 34.8012 30.0488 34.9385 29.9579 35.1221C29.5924 35.6249 28.9988 35.944 28.3606 35.8976C25.1196 35.7158 22.3369 35.7603 20.1458 35.9885H20.0995C19.8249 35.9885 19.5967 35.7603 19.5522 35.4858C19.5058 35.1667 19.734 34.8921 20.0549 34.8921C22.2904 34.6639 25.1216 34.6176 28.407 34.8012C28.6816 34.8012 28.9098 34.7103 29.0007 34.4821C29.138 34.3003 29.1825 34.0257 29.047 33.8439C28.7279 33.1593 28.2716 32.5657 27.6316 32.0648C26.6279 31.2429 25.2588 30.7866 23.7987 30.7866C21.5169 30.9684 19.3259 30.7402 17.2721 30.0556C16.6785 29.8738 16.2221 29.6456 15.8121 29.5083C15.2648 29.2802 14.853 29.0983 14.3057 29.0056C12.4338 28.6865 10.2892 29.3711 7.91642 31.1057C7.8255 31.152 7.73458 31.1966 7.59731 31.1966H6V39.7769H7.59731H7.68823L22.7486 42.4242C23.9805 42.6524 25.2587 42.3779 26.3087 41.7397C29.3661 39.7769 39.5436 33.2967 41.2317 31.881C41.9163 31.2874 41.9163 30.8774 41.9163 30.831C41.9163 30.421 41.5511 30.1019 41.2765 29.9647Z" fill="white"/>
<path d="M24.9416 23.8497C25.9007 23.3469 35.2566 18.3732 35.713 12.1213C35.8039 11.1176 35.9412 9.06392 34.572 7.55752C33.2938 6.14202 31.4238 6.05111 31.0119 6.00657C27.3609 5.82473 25.0791 9.47575 24.9417 9.65757C24.8508 9.47574 22.5225 5.82475 18.8714 6.00657C18.4614 6.00657 16.5896 6.09749 15.3114 7.55752C13.9422 9.06392 14.0795 11.1176 14.1704 12.1213C14.6268 18.3271 23.9823 23.3472 24.9416 23.8497Z" fill="white"/>
</svg>
