<svg width="48" height="48" viewBox="0 0 48 48" fill="none" xmlns="http://www.w3.org/2000/svg">
<path fill-rule="evenodd" clip-rule="evenodd" d="M36.2358 16.4306L35.5006 20.528H12.9965L12.2613 16.4306H36.2358ZM33.4981 8.80856L33.3208 8.51299C33.2025 8.32457 33.0215 8.21373 32.8035 8.19525L16.488 7.00188C16.233 6.98341 16.004 7.10164 15.871 7.32332L14.9879 8.80856H33.4981ZM38.4342 14.3838L36.4834 10.2827C36.3688 10.0463 36.1472 9.90218 35.8812 9.90218H12.616C12.35 9.90218 12.1283 10.0426 12.0138 10.2827L10.0667 14.3838C9.96692 14.5944 9.978 14.8271 10.1073 15.023C10.2329 15.2225 10.4324 15.3333 10.6689 15.3333H37.8356C38.0721 15.3333 38.2716 15.2225 38.3972 15.023C38.5228 14.8234 38.5339 14.5944 38.4342 14.3838ZM36.3578 22.4159L35.2531 27.969L34.4624 31.9444C34.4033 32.2585 34.1299 32.4802 33.8122 32.4802H14.6887C14.3709 32.4802 14.1012 32.2585 14.0384 31.9444L13.2478 27.969L12.1394 22.4159C12.0987 22.2127 12.1468 22.0243 12.2798 21.8654C12.4091 21.7066 12.5901 21.6216 12.7933 21.6216H35.7112C35.9144 21.6216 36.0954 21.7066 36.2248 21.8654C36.3541 22.0243 36.4021 22.2164 36.3578 22.4159ZM33.1582 33.5775L31.8244 41H16.6764L15.3426 33.5738H33.1582V33.5775Z" fill="white"/>
</svg>
