<svg width="48" height="48" viewBox="0 0 48 48" fill="none" xmlns="http://www.w3.org/2000/svg">
<path d="M39.1818 22.129L26.7779 9.72398C26.1615 9.10983 25.3268 8.76503 24.4567 8.76514C23.5866 8.76524 22.752 9.11023 22.1357 9.72453L21.3623 10.4981C20.7476 11.114 20.4023 11.9487 20.4023 12.8189C20.4023 13.689 20.7476 14.5237 21.3623 15.1396L33.7672 27.5441C34.3826 28.1594 35.2173 28.5051 36.0877 28.5051C36.958 28.5051 37.7927 28.1594 38.4082 27.5441L39.1818 26.7706C39.4866 26.4658 39.7283 26.104 39.8933 25.7058C40.0582 25.3076 40.1431 24.8808 40.1431 24.4498C40.1431 24.0188 40.0582 23.592 39.8933 23.1938C39.7283 22.7956 39.4866 22.4337 39.1818 22.129Z" fill="white"/>
<path d="M40.9751 20.8257L40.9641 20.8366C40.8896 20.7475 40.8092 20.6635 40.7235 20.585L28.3173 8.17881C28.2353 8.09613 28.1475 8.01935 28.0547 7.94907L28.0766 7.92719C28.7021 7.33196 29.5325 7 30.3959 7C31.2593 7 32.0897 7.33196 32.7152 7.92719L40.9751 16.1871C41.5897 16.8024 41.9349 17.6366 41.9349 18.5064C41.9349 19.3761 41.5897 20.2103 40.9751 20.8257Z" fill="white"/>
<path d="M27.5777 33.7324L15.1728 21.3279C14.5476 20.7313 13.7166 20.3984 12.8523 20.3984C11.9881 20.3984 11.157 20.7313 10.5318 21.3279L9.7582 22.1014C9.45342 22.4062 9.21166 22.768 9.04672 23.1662C8.88177 23.5644 8.79688 23.9912 8.79688 24.4222C8.79688 24.8532 8.88177 25.28 9.04672 25.6782C9.21166 26.0764 9.45342 26.4383 9.7582 26.743L22.1621 39.148C22.7785 39.7621 23.6131 40.1068 24.4832 40.1068C25.3532 40.1068 26.1879 39.7621 26.8043 39.148L27.5777 38.3739C28.1924 37.758 28.5377 36.9233 28.5377 36.0531C28.5377 35.183 28.1924 34.3483 27.5777 33.7324Z" fill="white"/>
<path d="M20.8693 40.9337L20.8584 40.9446C20.5541 41.2498 20.1926 41.4919 19.7946 41.6571C19.3967 41.8223 18.97 41.9074 18.539 41.9074C18.1081 41.9074 17.6814 41.8223 17.2834 41.6571C16.8854 41.4919 16.524 41.2498 16.2197 40.9446L7.95985 32.6847C7.34523 32.0694 7 31.2352 7 30.3654C7 29.4957 7.34523 28.6615 7.95985 28.0461L7.97079 28.0352C8.04534 28.1243 8.12575 28.2083 8.21148 28.2868L20.6177 40.693C20.6961 40.7787 20.7802 40.8591 20.8693 40.9337Z" fill="white"/>
<path d="M23.6937 20.5631L20.5977 23.6592L25.2472 28.3088L28.3433 25.2127L23.6937 20.5631Z" fill="white"/>
</svg>
