<svg width="48" height="48" viewBox="0 0 48 48" fill="none" xmlns="http://www.w3.org/2000/svg">
<path fill-rule="evenodd" clip-rule="evenodd" d="M25.753 14.283C28.3183 14.283 30.3983 12.2035 30.3983 9.6377C30.3983 7.0719 28.3188 4.9924 25.753 4.9924C23.1872 4.9924 21.1072 7.0724 21.1072 9.6377C21.1072 12.203 23.1872 14.283 25.753 14.283ZM17.465 27.8073C17.465 26.1504 16.1215 24.8084 14.4661 24.8084C12.8097 24.8084 11.4672 26.1509 11.4672 27.8073C11.4672 29.4637 12.8102 30.8063 14.4661 30.8063C16.122 30.8063 17.465 29.4637 17.465 27.8073ZM18.7515 36.8097C18.7319 36.2818 18.8487 35.8922 19.2377 35.5122C20.5893 34.1882 21.7404 32.7158 22.351 30.8885C22.6814 29.9014 22.8573 28.8812 22.9285 27.8464C22.94 27.6795 22.9175 27.5196 22.8729 27.3661C22.7761 27.0378 22.3565 26.6733 22.2547 26.6302C21.7524 26.4161 21.5358 26.546 21.1809 27.1601C20.7312 27.9367 20.3527 28.7543 19.9005 29.5289C18.8402 31.3422 17.5202 32.8507 15.3033 33.2367C14.9258 33.3019 14.5067 33.3034 14.1257 33.2848C13.6324 33.2593 13.098 33.1294 12.6408 32.9469C10.8696 32.2391 9.77218 30.5501 8.56147 29.1759C8.36946 28.9569 8.18798 28.7288 7.98093 28.5252C7.63552 28.1823 7.2525 27.9758 6.77173 28.1658C6.30048 28.3523 6.05383 28.7378 6.0062 29.2311C5.96559 29.6482 6.13204 30.0763 6.28243 30.4558C6.60328 31.2685 7.11564 32.0295 7.65356 32.7103C7.86863 32.981 8.08972 33.2452 8.31532 33.5059C8.72791 33.9797 9.15805 34.4359 9.60072 34.8816C10.0058 35.2891 10.4149 35.7689 10.8911 36.0948C11.1243 36.2552 11.4281 36.8377 11.4446 37.1711C11.5158 38.5558 11.599 39.4376 11.6562 40.8218C11.7269 42.5509 11.8326 44.2774 11.9795 46C13.2043 45.3864 16.9186 43.0457 18.8617 40.6719C18.8397 39.385 18.7991 38.0971 18.7515 36.8097ZM28.1393 26.8177C28.1072 26.0361 27.7939 24.291 28.6101 23.7852C29.4307 23.2748 30.8375 23.5907 31.7569 23.5525C32.7891 23.5094 33.8169 23.3656 34.814 23.0923C35.4356 22.9219 36.2964 22.8547 36.7897 22.396C37.4545 21.7794 37.2128 20.4744 36.8173 19.7776C36.3922 19.0281 35.569 18.992 34.7904 18.9313C33.5732 18.8376 32.37 18.6476 31.1703 18.423C27.4936 17.7356 23.9051 16.739 20.8595 14.473C18.404 12.6457 17.0474 10.0914 15.9114 7.36418C15.2562 5.79302 14.6486 4.1998 13.8144 2.70985C13.5031 2.15288 12.9992 1.94182 12.3751 2.01351C11.7579 2.0852 11.4401 2.48626 11.2366 3.0312C11.02 3.60873 11.025 4.21083 11.0606 4.8039C11.1363 6.0893 11.3097 7.36919 11.5845 8.62702C12.0582 10.8118 12.8273 12.9199 13.842 14.9117C14.6315 16.4618 15.8623 17.8128 16.3496 19.5088C16.674 20.6413 16.7381 21.9262 16.7336 23.1901C18.4381 24.0293 19.6147 25.7784 19.6147 27.8068C19.6147 28.1146 19.5857 28.4159 19.5335 28.7087C19.6644 28.4696 19.7967 28.2329 19.9221 27.9908C20.1306 27.5912 20.3377 27.1917 20.5643 26.8027C20.7628 26.4592 21.1308 25.8211 21.8752 25.8211C22.1344 25.8211 22.3826 25.9003 22.6533 26.0291C22.7455 26.0727 23.1807 26.348 23.3817 26.6944C23.5457 26.9771 23.683 27.3767 23.6409 27.894C23.5446 29.0712 23.3582 30.1245 23.0263 31.1141C22.4553 32.8211 21.4105 34.3812 19.7356 36.0216C19.516 36.2356 19.4503 36.4206 19.4638 36.7831C19.5115 38.075 19.5536 39.3679 19.5741 40.6599L19.5791 40.9356C19.5791 40.9356 18.9465 41.6395 18.7144 41.8826C22.1775 44.8259 32.3715 40.8544 31.2475 39.8021C30.5276 39.1273 28.2225 28.8025 28.1393 26.8177ZM40.5512 23.8809C40.1967 24.4945 39.8969 25.1408 39.5385 25.7529C38.7013 27.1872 37.6575 28.3783 35.9049 28.6846C35.6061 28.7368 35.2762 28.7373 34.9754 28.7222C34.5849 28.7027 34.1628 28.5999 33.8013 28.455C32.4011 27.8956 31.5338 26.5605 30.5768 25.4741C30.4249 25.3022 30.281 25.1217 30.1186 24.9603C29.8433 24.6896 29.542 24.5266 29.161 24.6765C28.789 24.8244 28.595 25.1287 28.5559 25.5198C28.5243 25.8486 28.6557 26.187 28.7745 26.4873C29.0282 27.1285 29.4332 27.7306 29.8594 28.2695C30.0288 28.4841 32.0878 30.8078 33.0308 35.1157C33.5216 37.3551 33.0278 39.4045 33.0308 39.4366C33.9993 38.9513 37.1186 38.1452 38.7188 37.7436C38.7013 36.7269 38.6677 32.5273 38.6306 31.5091C38.6151 31.093 38.7068 30.7847 39.0146 30.4839C40.0829 29.4371 40.9944 28.2741 41.4761 26.8287C41.7368 26.0482 41.9333 25.2445 41.9333 24.4239C41.9338 23.538 40.8891 23.2979 40.5512 23.8809ZM35.1168 23.7721C34.1006 23.7516 32.8774 24.7402 33.0468 25.9268C33.2163 27.105 33.9743 28.082 35.1168 28.082C36.2603 28.082 37.1878 27.1165 37.1878 25.9268C37.1878 24.7367 36.4438 23.7982 35.1168 23.7721Z" fill="white"/>
</svg>
