<svg width="48" height="48" viewBox="0 0 48 48" fill="none" xmlns="http://www.w3.org/2000/svg">
<path d="M40.9291 31.7921C37.4853 25.8249 28.2176 28.3103 28.2194 35.2249C28.1651 38.9023 31.3679 42.0959 35.0454 42.0416C40.1792 42.1775 43.6267 36.1343 40.9295 31.7917L40.9291 31.7921ZM30.7103 35.6706C29.8009 34.7521 31.1831 33.3464 32.1088 34.2612L33.8152 35.9676L37.4275 32.3554C38.3513 31.4424 39.7517 32.8355 38.8368 33.7648L34.5218 38.0799C34.154 38.4549 33.4874 38.4621 33.1233 38.0799L30.7121 35.6688L30.7103 35.6706Z" fill="white"/>
<path d="M24.152 5.00309C-5.80559 6.77115 1.7703 50.6629 30.3621 42.6757C29.2009 41.9384 28.2263 40.9529 27.5035 39.7682C12.1018 42.9456 2.03876 24.4156 12.9407 13.267C18.7701 7.08233 29.4364 7.06424 35.3043 13.1981C38.9455 16.7306 40.7641 22.4913 39.5705 27.6742C40.757 28.3825 41.7516 29.3607 42.4871 30.5219C46.8257 18.3377 37.1265 4.77105 24.1526 5.00293L24.152 5.00309Z" fill="white"/>
<path d="M35.0445 26.4134C35.9775 26.4134 36.8706 26.5619 37.7129 26.83C37.8126 26.3445 37.8723 25.8482 37.9013 25.341H36.9594C36.4032 25.341 35.9666 24.8953 35.9666 24.3482C35.9666 23.803 36.4032 23.3555 36.9594 23.3555H37.9013C37.6839 20.2995 36.4629 17.5113 34.5681 15.3284L33.9033 15.9932C33.5246 16.3809 32.8798 16.3773 32.5048 15.9932C32.1171 15.6056 32.1171 14.9806 32.5048 14.5947L33.1696 13.9299C30.9867 12.0242 28.1986 10.814 25.1425 10.5967V11.5387C25.1425 12.0839 24.6968 12.5314 24.1498 12.5314C23.5936 12.5314 23.1571 12.0857 23.1571 11.5387V10.5967C20.0919 10.8141 17.304 12.0351 15.1211 13.9299L15.786 14.5947C16.1736 14.9824 16.1736 15.6074 15.786 15.9932C15.4037 16.3791 14.7661 16.3737 14.3875 15.9932L13.7226 15.3284C11.8368 17.5113 10.6177 20.2994 10.3984 23.3555H11.3314C11.8875 23.3555 12.3241 23.8012 12.3241 24.3482C12.3241 24.8935 11.8875 25.341 11.3314 25.341H10.3984C10.6158 28.397 11.8368 31.1852 13.7226 33.3681L14.3875 32.7032C14.7751 32.3156 15.4001 32.3156 15.786 32.7032C16.1736 33.1 16.1736 33.7249 15.786 34.1126L15.132 34.7666C17.3149 36.6724 20.103 37.8825 23.1591 38.0998V37.1579C23.1591 36.6126 23.5957 36.1652 24.1518 36.1652C24.6971 36.1652 25.1445 36.6108 25.1445 37.1579V38.0998C25.6499 38.0709 26.1662 38.0002 26.6626 37.9114C24.7695 32.3807 29.1969 26.3083 35.0463 26.4117L35.0445 26.4134ZM25.1425 24.35C25.1678 25.2123 24.0374 25.6761 23.445 25.0547L19.715 21.3247C18.8057 20.4063 20.1878 19.0005 21.1135 19.9153L23.1569 21.9587V16.2833C23.1732 14.9826 25.117 14.9772 25.1406 16.2833V24.3503L25.1425 24.35Z" fill="white"/>
</svg>
