<svg width="66" height="66" viewBox="0 0 66 66" fill="none" xmlns="http://www.w3.org/2000/svg">
<path d="M33.4309 46.6812L32.6136 40.9011C33.229 40.8794 33.8266 40.7943 34.4004 40.6498L35.2177 46.4279C37.8674 46.5387 39.9827 48.7213 39.9827 51.3987C39.9827 54.1474 37.7546 56.3735 35.0079 56.3735C32.2613 56.3735 30.0332 54.1454 30.0332 51.3987C30.0332 49.2022 31.4559 47.3382 33.4308 46.6792L33.4309 46.6812ZM13.2248 46.426C14.2716 46.426 15.2432 46.7505 16.0446 47.3026L25.6302 37.717C26.0101 38.186 26.4396 38.6154 26.9085 38.9954L17.3229 48.5809C17.875 49.3823 18.1996 50.354 18.1996 51.4008C18.1996 54.1494 15.9714 56.3755 13.2248 56.3755C10.4782 56.3755 8.25 54.1474 8.25 51.4008C8.25 48.6541 10.4782 46.426 13.2248 46.426ZM21.8863 12.2433C24.635 12.2433 26.8611 14.4714 26.8611 17.2181C26.8611 18.5894 26.307 19.8301 25.4087 20.7305L28.1968 24.7654C27.6665 25.0562 27.1698 25.4006 26.7147 25.7923L23.9265 21.7575C23.3032 22.0385 22.6125 22.1929 21.8863 22.1929C19.1377 22.1929 16.9115 19.9647 16.9115 17.2181C16.9115 14.4714 19.1397 12.2433 21.8863 12.2433ZM51.4009 8.25C54.1495 8.25 56.3756 10.4782 56.3756 13.2248C56.3756 15.9714 54.1475 18.1996 51.4009 18.1996C50.354 18.1996 49.3824 17.8751 48.581 17.3229L38.9955 26.9085C38.6155 26.4395 38.1861 26.0101 37.7171 25.6302L47.3027 16.0446C46.7506 15.2432 46.4261 14.2716 46.4261 13.2248C46.4261 10.4762 48.6542 8.25 51.4009 8.25ZM32.3128 25.527C36.0587 25.527 39.0985 28.5645 39.0985 32.3127C39.0985 36.0608 36.061 39.0983 32.3128 39.0983C28.5669 39.0983 25.5272 36.0608 25.5272 32.3127C25.5272 28.5645 28.5647 25.527 32.3128 25.527ZM51.4009 36.4287C54.1495 36.4287 56.3756 38.6568 56.3756 41.4034C56.3756 44.1501 54.1475 46.3782 51.4009 46.3782C48.6542 46.3782 46.4261 44.1501 46.4261 41.4034C46.4261 40.9582 46.4854 40.5268 46.5943 40.1152L39.6404 36.8026C39.955 36.2921 40.2162 35.744 40.4181 35.17L47.372 38.4826C48.2763 37.238 49.7426 36.4266 51.3989 36.4266L51.4009 36.4287Z" fill="#D6006D"/>
</svg>
