<svg width="400" height="1280" viewBox="0 0 400 1280" fill="none" xmlns="http://www.w3.org/2000/svg">
<path d="M-66.9229 0C-66.7736 0.108374 -14.3723 38.1172 58.1963 38.1172C135.102 38.1171 190.605 0.000240768 321.838 1.40527C354.662 1.75674 417.579 12.1118 437.552 18.8506L507.365 9.96484L453.021 438.619C463.806 746.07 477.573 1116.69 477.573 1188.66L412.57 1196.93V1280C412.57 1280 360.122 1241.88 287.45 1241.88C210.545 1241.88 155.042 1280 23.8086 1278.59C-9.01491 1278.24 -71.9308 1267.89 -91.9043 1261.15L-161.719 1270.04L-107.376 841.384C-118.161 533.932 -131.927 163.314 -131.927 91.3398L-66.9229 83.0654V0Z" fill="url(#paint0_linear_1036_10971)"/>
<defs>
<linearGradient id="paint0_linear_1036_10971" x1="172.823" y1="0" x2="172.823" y2="1330.98" gradientUnits="userSpaceOnUse">
<stop stop-color="#FCECF7"/>
<stop offset="0.846154" stop-color="#FFC7EC"/>
</linearGradient>
</defs>
</svg>
