<svg width="49" height="49" viewBox="0 0 49 49" fill="none" xmlns="http://www.w3.org/2000/svg">
<path d="M25.1809 38.4312L24.3636 32.6511C24.979 32.6294 25.5766 32.5443 26.1504 32.3998L26.9677 38.1779C29.6174 38.2887 31.7327 40.4713 31.7327 43.1487C31.7327 45.8974 29.5046 48.1235 26.7579 48.1235C24.0113 48.1235 21.7832 45.8954 21.7832 43.1487C21.7832 40.9522 23.2059 39.0882 25.1808 38.4292L25.1809 38.4312ZM4.97479 38.176C6.02159 38.176 6.99322 38.5005 7.79463 39.0526L17.3802 29.467C17.7601 29.936 18.1896 30.3654 18.6585 30.7454L9.07294 40.3309C9.62502 41.1323 9.94959 42.104 9.94959 43.1508C9.94959 45.8994 7.72143 48.1255 4.97479 48.1255C2.22815 48.1255 0 45.8974 0 43.1508C0 40.4041 2.22815 38.176 4.97479 38.176ZM13.6363 3.99329C16.385 3.99329 18.6111 6.22144 18.6111 8.96808C18.6111 10.3394 18.057 11.5801 17.1587 12.4805L19.9468 16.5154C19.4165 16.8062 18.9198 17.1506 18.4647 17.5423L15.6765 13.5075C15.0532 13.7885 14.3625 13.9429 13.6363 13.9429C10.8877 13.9429 8.66155 11.7147 8.66155 8.96807C8.66155 6.22143 10.8897 3.99329 13.6363 3.99329ZM43.1509 0C45.8995 0 48.1256 2.22815 48.1256 4.97479C48.1256 7.72143 45.8975 9.94959 43.1509 9.94959C42.104 9.94959 41.1324 9.62506 40.331 9.07294L30.7455 18.6585C30.3655 18.1895 29.9361 17.7601 29.4671 17.3802L39.0527 7.79463C38.5006 6.99322 38.1761 6.02159 38.1761 4.97479C38.1761 2.22618 40.4042 0 43.1509 0ZM24.0628 17.277C27.8087 17.277 30.8485 20.3145 30.8485 24.0627C30.8485 27.8108 27.811 30.8483 24.0628 30.8483C20.3169 30.8483 17.2772 27.8108 17.2772 24.0627C17.2772 20.3145 20.3147 17.277 24.0628 17.277ZM43.1509 28.1787C45.8995 28.1787 48.1256 30.4068 48.1256 33.1534C48.1256 35.9001 45.8975 38.1282 43.1509 38.1282C40.4042 38.1282 38.1761 35.9001 38.1761 33.1534C38.1761 32.7082 38.2354 32.2768 38.3443 31.8652L31.3904 28.5526C31.705 28.0421 31.9662 27.494 32.1681 26.92L39.122 30.2326C40.0263 28.988 41.4926 28.1766 43.1489 28.1766L43.1509 28.1787Z" fill="#D6006D"/>
</svg>
