<svg width="768" height="731" viewBox="0 0 768 731" fill="none" xmlns="http://www.w3.org/2000/svg">
<path d="M840 731C840 731 745.843 693.111 615.376 693.111C477.31 693.111 377.666 731 142.066 729.604C79.9947 729.236 -42.0223 717.836 -70.7334 711.225C-70.7334 675.546 -70.8388 658.365 -70.9873 638H-72C-72 523.613 -71.9527 434.966 -71.877 365.5C-71.9527 296.034 -72 207.387 -72 93H-70.9873C-70.8388 72.6354 -70.7334 55.4541 -70.7334 19.7754C-42.0223 13.1643 79.9947 1.76446 142.066 1.39648C377.666 -0.000110854 477.31 37.8886 615.376 37.8887C745.843 37.8887 840 0 840 0V731Z" fill="url(#paint0_linear_1036_13049)"/>
<defs>
<linearGradient id="paint0_linear_1036_13049" x1="384" y1="0" x2="384" y2="760.113" gradientUnits="userSpaceOnUse">
<stop stop-color="#FFC7EC"/>
<stop offset="1" stop-color="#FA7BBB"/>
</linearGradient>
</defs>
</svg>
