<svg width="400" height="886" viewBox="0 0 400 886" fill="none" xmlns="http://www.w3.org/2000/svg">
<path d="M465.281 346H416.409L451.281 561.169V886C451.281 886 392.433 862.294 310.892 862.294C224.6 862.294 162.323 886 15.0732 885.126C-23.7213 884.896 -99.9817 877.763 -117.927 873.627C-117.927 795.765 -118.719 613.58 -118.719 540L-52.7188 346.5L-51.6699 346H-104.719C-104.719 272.42 -103.927 90.2352 -103.927 12.373C-85.9817 8.23661 -9.72125 1.10424 29.0732 0.874023C176.323 0.000241316 238.6 23.7061 324.892 23.7061C406.433 23.706 465.281 0 465.281 0V346Z" fill="#FA7BBB"/>
</svg>
