<svg width="66" height="66" viewBox="0 0 66 66" fill="none" xmlns="http://www.w3.org/2000/svg">
<path d="M33.5339 25.1367C30.1442 25.1452 26.6027 25.8928 22.884 27.3937C23.6204 27.4808 24.3652 27.5989 25.1044 27.7338C28.4183 28.3409 31.5437 29.3528 33.4604 30.4602C38.0251 33.0967 39.6019 38.9767 36.9654 43.5415C34.3317 48.1089 28.4518 49.6829 23.887 47.0464C21.9673 45.939 19.5276 43.7382 17.3437 41.1692C16.2925 39.9325 15.3087 38.634 14.5217 37.3101C12.6497 44.8257 16.1294 53.435 24.3593 53.435H56.2133C58.58 44.5501 55.1706 35.1263 47.6832 29.8506C43.2394 26.7195 38.5515 25.1258 33.5341 25.1399L33.5339 25.1367ZM20.149 29.9824C19.733 29.9824 19.3395 30.0021 18.9629 30.0302C17.6503 31.354 16.6272 32.8606 15.947 33.9989C16.5851 35.5954 17.8836 37.605 19.4154 39.4095C21.4335 41.7817 23.862 43.8925 25.2449 44.6907C28.539 46.5907 32.7101 45.4749 34.6075 42.1808C36.5104 38.8894 35.3917 34.7155 32.0976 32.8152C30.7147 32.017 27.6735 30.9686 24.61 30.4092C23.0782 30.1282 21.5182 29.982 20.1438 29.982L20.149 29.9824ZM44.9508 33.1416C45.0689 33.15 45.1841 33.1922 45.2797 33.2625C50.2968 36.7984 53.0428 42.6251 52.7536 48.6175H52.7564C52.7367 48.9913 52.4191 49.2808 52.0453 49.2639C51.6686 49.2442 51.3791 48.9266 51.3988 48.55C51.6658 43.0129 49.1306 37.636 44.4986 34.3729C44.3496 34.2689 44.2512 34.1115 44.2203 33.9344C44.1894 33.7574 44.2287 33.5747 44.3327 33.4257C44.4733 33.2289 44.7091 33.1191 44.9508 33.1416Z" fill="#FFD100"/>
<path d="M10.1035 23.0615C9.86456 23.0643 9.62003 23.1065 9.37271 23.1908C8.06012 23.6377 7.20847 25.1049 7.48391 26.4653L7.50078 26.5299C7.4811 26.5356 7.45862 26.5412 7.43894 26.5496C6.12636 26.9965 5.28032 28.4609 5.55015 29.8241C5.81716 31.1845 7.10162 31.9265 8.41428 31.4796C9.08041 31.252 9.46545 31.0805 9.8702 30.3244L14.1987 32.8232C14.8226 37.25 21.2592 43.9674 24.5644 45.8735C28.4937 48.1417 33.519 46.7953 35.7849 42.866C38.0531 38.9367 36.7067 33.9113 32.7774 31.6426C29.4749 29.737 20.4466 27.5221 16.2956 29.1917L11.9643 26.6901C12.4169 25.9622 12.3719 25.5405 12.237 24.8519C12.0178 23.7473 11.1295 23.0503 10.1008 23.0671L10.1035 23.0615Z" fill="#FFD100"/>
<path d="M13.7383 54.6689C13.7383 57.4487 15.9925 59.7057 18.7723 59.7057H55.4717C58.2543 59.7057 60.5057 57.4516 60.5057 54.6689H13.7383Z" fill="#FFD100"/>
<path d="M32.8536 6.875C32.5304 6.875 32.2325 7.04645 32.0695 7.32753C31.305 8.65134 31.111 9.84031 31.3218 10.8409C31.5326 11.8415 32.0751 12.5779 32.5192 13.2075C32.9605 13.8399 33.3033 14.3656 33.413 14.9193C33.5226 15.4729 33.4664 16.1307 32.8396 17.2184V17.2156C32.5894 17.6484 32.7384 18.2022 33.1713 18.4523C33.6041 18.7025 34.1606 18.5563 34.4108 18.1207C35.1894 16.7743 35.3946 15.577 35.1922 14.5623C34.9898 13.5505 34.4502 12.8 34.0033 12.1648C33.5592 11.5296 33.2106 11.004 33.0954 10.4615C32.9802 9.92187 33.028 9.28946 33.6379 8.2298L33.6407 8.23261C33.8909 7.79976 33.7419 7.24605 33.309 6.99586C33.1713 6.91716 33.0138 6.875 32.8536 6.875Z" fill="#FFD100"/>
<path d="M24.2549 8.7207C23.9289 8.7207 23.631 8.89216 23.4679 9.17323C22.7034 10.497 22.5095 11.686 22.7202 12.6866C22.931 13.6872 23.4735 14.4236 23.9176 15.0532C24.3589 15.6857 24.7018 16.2113 24.8114 16.765C24.921 17.3187 24.8648 17.9764 24.238 19.0641L24.2409 19.0613C23.9879 19.4941 24.1369 20.0479 24.5725 20.298C24.7805 20.4189 25.0278 20.4526 25.2583 20.3908C25.4916 20.3261 25.6884 20.1744 25.8092 19.9664C26.5878 18.62 26.793 17.4199 26.5906 16.408C26.3882 15.3962 25.8486 14.6485 25.4017 14.0105C24.9576 13.3753 24.609 12.8497 24.4938 12.3072C24.3786 11.7676 24.4264 11.1352 25.0363 10.0755L25.0391 10.0783C25.2893 9.64547 25.1403 9.09176 24.7074 8.84157C24.5697 8.76006 24.4123 8.7207 24.2549 8.7207Z" fill="#FFD100"/>
<path d="M41.4513 8.72073C41.128 8.72073 40.8273 8.89219 40.6671 9.17326C39.9026 10.4971 39.7087 11.686 39.9194 12.6866C40.1303 13.6872 40.6727 14.4209 41.1168 15.0533C41.5581 15.6857 41.901 16.2113 42.0106 16.7622C42.1203 17.3159 42.0641 17.9736 41.4373 19.0613C41.3164 19.2693 41.2827 19.5167 41.3445 19.7471C41.4092 19.9804 41.5609 20.18 41.7689 20.298C42.2018 20.5482 42.7555 20.402 43.0057 19.9664C43.7842 18.62 43.9894 17.4227 43.787 16.408C43.5875 15.3962 43.045 14.6457 42.5981 14.0105C42.1512 13.3753 41.8055 12.8497 41.6903 12.3072C41.575 11.7676 41.6228 11.1352 42.2327 10.0755L42.2356 10.0783C42.4885 9.64546 42.3395 9.09175 41.9039 8.84156C41.7662 8.76005 41.6115 8.72073 41.4513 8.72073Z" fill="#FFD100"/>
</svg>
