<svg width="66" height="66" viewBox="0 0 66 66" fill="none" xmlns="http://www.w3.org/2000/svg">
<path fill-rule="evenodd" clip-rule="evenodd" d="M49.8514 17.9443C49.9141 18.04 50.105 18.04 50.105 18.04C50.2019 18.04 50.2988 18.0081 50.3615 17.9443C50.5211 17.8138 50.5525 17.5847 50.4242 17.4223C46.7848 12.0274 41.0053 8.68057 34.5871 8.25956C34.5244 8.22476 34.3648 8.29147 34.2993 8.35528C34.2052 8.42199 34.171 8.64823 34.171 8.64823V11.5081C34.171 11.7024 34.3306 11.8997 34.5558 11.8997C40.3041 12.2245 45.73 14.3681 49.8514 17.9443ZM15.6521 17.9443C15.7148 18.011 15.9057 18.0429 15.9057 18.0429C16.0026 18.0429 16.0995 18.011 16.1622 17.9443C20.3146 14.371 25.7096 12.2246 31.4266 11.8998C31.6489 11.8998 31.8085 11.7374 31.8085 11.5111V8.65122C31.8085 8.55261 31.7771 8.42209 31.6802 8.35828C31.6175 8.25967 31.4893 8.25966 31.3953 8.25966C24.9743 8.68313 19.2287 12.0303 15.5866 17.4253C15.4925 17.5877 15.4925 17.8138 15.6521 17.9443ZM52.6304 31.5272C52.7244 31.623 52.9496 31.6897 52.9496 31.6897H53.0123C53.1719 31.6578 53.3001 31.5272 53.3001 31.3648C53.5538 30.0654 53.6507 28.6674 53.6193 27.2694C53.6193 27.2375 53.588 27.1069 53.588 27.1069L52.9496 25.8395C49.7234 19.2438 42.6982 14.8234 34.5874 14.3364C34.4905 14.3015 34.3964 14.3683 34.2995 14.4321C34.2055 14.4988 34.1713 14.725 34.1713 14.725V17.7473C34.1713 17.9416 34.2682 18.1041 34.4591 18.1389C36.6621 18.7219 38.2923 20.5752 38.6115 22.8492C38.6428 23.0117 38.7711 23.1422 38.9307 23.1741C44.3912 24.4097 49.2451 27.3999 52.6304 31.5272ZM15.5558 39.6831H15.6527C15.7467 39.6831 15.8436 39.6512 15.9063 39.5845C20.0587 35.8805 25.5821 33.6385 31.4268 33.2817C31.6491 33.2817 31.8087 33.1164 31.8087 32.8902V29.7374C31.8087 29.543 31.7118 29.3806 31.5208 29.3487C29.7966 28.8933 28.3916 27.5939 27.7219 25.903C27.625 25.7086 27.434 25.5781 27.2431 25.6419C21.4948 27.0399 16.6415 30.4857 13.8625 35.1001C13.8311 35.1987 13.8311 35.4569 13.8311 35.4569L15.2676 39.4218C15.3331 39.5523 15.4275 39.6512 15.5558 39.6831ZM18.1093 46.8617H18.2376L18.2062 46.8298C18.3031 46.8298 18.3658 46.7979 18.4314 46.766C22.199 44.1991 26.6676 42.7024 31.3961 42.4443C31.6184 42.4443 31.778 42.2819 31.778 42.0528V36.1706C31.778 36.0749 31.7153 35.9444 31.6497 35.8777C31.587 35.8139 31.4588 35.782 31.3619 35.782C25.6164 36.1068 20.3466 38.4475 16.579 42.3776C16.4821 42.4762 16.4821 42.8011 16.4821 42.8011L17.8558 46.6036C17.8871 46.7341 17.9839 46.8298 18.1093 46.8617ZM47.5517 46.7979C47.6144 46.8646 47.774 46.8646 47.774 46.8646L47.7427 46.8965H47.8709C47.9992 46.8298 48.1274 46.6355 48.1274 46.6355L49.4982 42.8011C49.5324 42.6386 49.4982 42.4762 49.4042 42.3776C45.6052 38.4794 40.3354 36.1387 34.587 35.8139C34.4901 35.8139 34.3647 35.8458 34.2992 35.9125C34.2051 35.9763 34.1709 36.2025 34.1709 36.2025V42.0847C34.1709 42.2819 34.3305 42.4763 34.5557 42.4763C39.3122 42.7344 43.7842 44.231 47.5517 46.7979ZM39.8568 57.0336C39.9508 57.4222 40.3014 57.7152 40.6861 57.7152V57.6833C42.7922 57.6833 44.6761 56.3519 45.38 54.3361L47.0415 49.7215C47.1042 49.5591 47.0415 49.3648 46.9132 49.2662C44.3568 47.4128 41.3244 46.0496 38.0984 45.3999C37.9388 45.3651 37.7792 45.4318 37.6851 45.5623C37.6196 45.6899 37.5882 45.8871 37.6851 46.0177C37.7478 46.1134 37.7792 46.3744 37.7792 46.3744L39.8568 57.0336ZM20.6337 54.371C21.3348 56.352 23.1872 57.7181 25.2933 57.7181V57.75C25.7094 57.75 26.06 57.4251 26.1255 57.0365L28.2316 46.4095C28.2316 46.279 28.2629 46.1485 28.3285 46.0499C28.4225 45.8875 28.4225 45.725 28.3285 45.5974C28.2316 45.4669 28.072 45.435 27.9124 45.435C24.6891 46.0847 21.6539 47.416 19.1005 49.3013C18.9722 49.397 18.9095 49.5942 18.9722 49.7566L20.6337 54.371ZM50.0739 39.5525C50.1395 39.6163 50.3304 39.6511 50.3304 39.6511H50.3618C50.49 39.6163 50.6496 39.3901 50.6496 39.3901L52.086 35.3613C52.1173 35.2308 52.1173 35.1003 52.0546 35.0017C49.2446 30.387 44.3911 27.0077 38.7054 25.6422C38.5145 25.6103 38.3235 25.7089 38.258 25.9032C37.6196 27.6261 36.1832 28.8936 34.459 29.349C34.2994 29.3809 34.1712 29.5433 34.1712 29.7376V32.8905C34.1712 33.0848 34.3308 33.282 34.5559 33.282C40.4297 33.6388 45.9554 35.8486 50.0739 39.5525ZM12.9679 31.6922H13.0648C13.1931 31.6922 13.3213 31.6255 13.384 31.5298C16.7384 27.3676 21.5919 24.4121 27.0521 23.1764C27.2117 23.1445 27.3713 23.014 27.3713 22.8516C27.7218 20.5776 29.3491 18.7242 31.5208 18.1383C31.6804 18.1064 31.8086 17.944 31.8086 17.7496V14.7273C31.8086 14.6287 31.7459 14.5011 31.6804 14.4344C31.6177 14.3358 31.4894 14.3358 31.3925 14.3358C23.2847 14.826 16.2595 19.2434 13.0332 25.8419L12.4262 27.1093C12.3949 27.1732 12.3949 27.2051 12.3949 27.2718C12.3293 28.635 12.4262 30.0011 12.6827 31.3672C12.7141 31.5296 12.8083 31.6574 12.9679 31.6922ZM29.6689 23.725C29.6689 25.6103 31.1708 27.104 32.9919 27.104C34.8444 27.104 36.3121 25.5755 36.3121 23.725C36.3121 21.8716 34.8444 20.3778 32.9919 20.3778C31.1394 20.3778 29.6689 21.8397 29.6689 23.725Z" fill="#FFD100"/>
</svg>
