<svg width="66" height="66" viewBox="0 0 66 66" fill="none" xmlns="http://www.w3.org/2000/svg">
<path d="M58.5052 35.6738H7.80457C6.53226 35.6738 5.5 36.7174 5.5 38.0037V39.1686C5.5 40.4549 6.53226 41.4985 7.80457 41.4985H8.41912L9.84267 52.291C9.99391 53.4487 10.9733 54.3127 12.1281 54.3127H20.1197C20.9864 54.3127 21.7185 53.6622 21.8338 52.7958L22.0474 51.1722C22.1602 50.3034 22.8948 49.6554 23.7615 49.6554H25.2738C26.1405 49.6554 26.8726 50.3058 26.9879 51.1722L27.2015 52.7958C27.3143 53.6647 28.0489 54.3127 28.9156 54.3127H37.4087C38.2753 54.3127 39.0075 53.6622 39.1227 52.7958L39.3364 51.1722C39.4492 50.3034 40.1838 49.6554 41.0504 49.6554H42.5628C43.4294 49.6554 44.1616 50.3058 44.2768 51.1722L44.4905 52.7958C44.6033 53.6647 45.3379 54.3127 46.2045 54.3127H54.1962C55.3509 54.3127 56.3279 53.4487 56.4816 52.291L57.9051 41.4985H58.5197C59.792 41.4985 60.8243 40.4549 60.8243 39.1686V38.0037C60.8243 36.7174 59.792 35.6738 58.5197 35.6738H58.5052Z" fill="#FFD100"/>
<path d="M57.3053 33.3438H43.4902C43.399 31.2809 43.0413 29.3369 42.4531 27.5652C43.8815 23.7913 46.4045 21.1118 49.2851 21.1118C53.491 21.1118 56.9477 26.8199 57.3053 33.3438Z" fill="#FFD100"/>
<path d="M23.8561 27.5653C23.268 29.337 22.9102 31.281 22.819 33.3439H9.00391C9.36159 26.8203 12.8184 21.1118 17.0244 21.1118C19.9051 21.1118 22.4279 23.7913 23.8561 27.5653Z" fill="#FFD100"/>
<path d="M41.1739 33.3439H25.1328C25.4905 26.8203 28.9473 21.1118 33.1533 21.1118C37.3593 21.1118 40.8162 26.82 41.1739 33.3439Z" fill="#FFD100"/>
<path d="M48.0791 18.8862C45.3136 19.3764 42.8818 21.5194 41.2231 24.6405C39.5643 21.5194 37.1326 19.374 34.3672 18.8862C35.7955 15.0759 38.3306 12.375 41.2231 12.375C44.1157 12.375 46.6509 15.0786 48.0791 18.8862Z" fill="#FFD100"/>
<path d="M31.9463 18.8862C29.1808 19.3764 26.749 21.5194 25.0903 24.6405C23.4315 21.5194 20.9997 19.374 18.2344 18.8862C19.6627 15.0759 22.1977 12.375 25.0903 12.375C27.9829 12.375 30.5181 15.0786 31.9463 18.8862Z" fill="#FFD100"/>
</svg>
