<svg width="1920" height="949" viewBox="0 0 1920 949" fill="none" xmlns="http://www.w3.org/2000/svg">
<path d="M1925 949C1925 949 1723.68 895.014 1444.72 895.014C1149.51 895.014 936.458 949 432.708 947.01C299.989 946.485 39.0968 930.242 -22.292 920.822C-22.292 884.926 -22.405 839.293 -22.582 787.947H-25C-25 716.154 -24.5009 598.959 -23.9326 474.5C-24.5009 350.041 -25 232.846 -25 161.053H-22.582C-22.405 109.707 -22.292 64.0739 -22.292 28.1777C39.0968 18.7578 299.989 2.51453 432.708 1.99023C936.458 0.000280857 1149.51 53.9863 1444.72 53.9863C1723.68 53.9863 1925 0 1925 0V949Z" fill="url(#paint0_linear_1228_8831)"/>
<defs>
<linearGradient id="paint0_linear_1228_8831" x1="950" y1="0" x2="950" y2="986.795" gradientUnits="userSpaceOnUse">
<stop stop-color="#FA7BBB"/>
<stop offset="1" stop-color="#D52F86"/>
</linearGradient>
</defs>
</svg>
