<svg width="400" height="1373" viewBox="0 0 400 1373" fill="none" xmlns="http://www.w3.org/2000/svg">
<path d="M-66.9229 0C-66.7765 0.112233 -14.3743 40.249 58.1963 40.249C135.102 40.2489 190.605 -0.000193982 321.838 1.4834C354.661 1.85451 417.577 12.7888 437.551 19.9043L507.365 10.5215L453.021 463.143C463.806 787.785 477.573 1179.12 477.573 1255.12L426.335 1262.01L429.643 1373C429.506 1372.9 377.101 1332.75 304.523 1332.75C227.618 1332.75 172.115 1373 40.8818 1371.52C6.30682 1371.13 -61.6588 1359.02 -77.6514 1351.99C-77.6514 1346.2 -77.757 1338.75 -77.9561 1329.79L-161.719 1341.05L-99.7979 825.312C-114.808 512.298 -131.927 166.609 -131.927 96.4473L-66.9229 87.71V0Z" fill="#FA7BBB"/>
</svg>
