<svg width="768" height="1189" viewBox="0 0 768 1189" fill="none" xmlns="http://www.w3.org/2000/svg">
<path d="M937.915 60.4229H1004.16V106.194L972.162 1189C971.976 1188.92 847.039 1137.74 673.973 1137.74C490.688 1137.74 358.411 1189 45.6504 1187.11C-36.7502 1186.61 -198.73 1171.19 -236.844 1162.25C-236.844 1124.57 -235.325 1056.56 -232.969 971.887H-242.852C-242.852 834.878 -273.164 168.02 -273.164 23.0391C-235.05 15.3369 -73.0704 2.05563 9.33008 1.62695C322.091 -7.98225e-05 454.368 44.1416 637.652 44.1416C810.716 44.1416 935.652 0.0670753 935.842 0L937.915 60.4229Z" fill="url(#paint0_linear_1036_13066)"/>
<defs>
<linearGradient id="paint0_linear_1036_13066" x1="365.496" y1="0" x2="365.496" y2="1236.35" gradientUnits="userSpaceOnUse">
<stop stop-color="#FA7BBB"/>
<stop offset="1" stop-color="#D52F86"/>
</linearGradient>
</defs>
</svg>
