<svg width="400" height="4742" viewBox="0 0 400 4742" fill="none" xmlns="http://www.w3.org/2000/svg">
<g clip-path="url(#clip0_1241_8893)">
<rect width="400" height="4742" fill="#5D2E9A"/>
<rect x="-118" y="4390" width="1003" height="750" fill="#3C0C86"/>
<rect x="-118" y="2940" width="1003" height="750" fill="#3C0C86"/>
<path d="M-66.9229 2065C-66.7774 2065.11 -14.375 2105.98 58.1963 2105.98C135.102 2105.98 190.605 2065 321.838 2066.51C354.661 2066.89 417.575 2078.02 437.55 2085.27L507.365 2075.71L453.021 2536.58C463.806 2867.13 477.573 3265.59 477.573 3342.98L426.335 3349.99L429.643 3463C429.507 3462.89 377.101 3422.02 304.523 3422.02C227.618 3422.02 172.115 3463 40.8818 3461.49C6.30683 3461.09 -61.6588 3448.76 -77.6514 3441.61C-77.6514 3435.72 -77.757 3428.13 -77.9561 3419L-161.719 3430.47L-99.7979 2905.34C-114.808 2586.63 -131.927 2234.64 -131.927 2163.2L-66.9229 2154.31V2065Z" fill="#FA7BBB"/>
<path d="M465.281 372H416.409L451.281 587.169V912C451.281 912 392.433 888.294 310.892 888.294C224.6 888.294 162.323 912 15.0732 911.126C-23.7213 910.896 -99.9817 903.763 -117.927 899.627C-117.927 821.765 -118.719 639.58 -118.719 566L-52.7188 372.5L-51.6699 372H-104.719C-104.719 298.42 -103.927 116.235 -103.927 38.373C-85.9817 34.2366 -9.72125 27.1042 29.0732 26.874C176.323 26.0002 238.6 49.7061 324.892 49.7061C406.433 49.706 465.281 26 465.281 26V372Z" fill="#FA7BBB"/>
<path d="M-66.9229 845C-66.7736 845.108 -14.3723 883.117 58.1963 883.117C135.102 883.117 190.605 845 321.838 846.405C354.662 846.757 417.579 857.112 437.552 863.851L507.365 854.965L453.021 1283.62C463.806 1591.07 477.573 1961.69 477.573 2033.66L412.57 2041.93V2125C412.57 2125 360.122 2086.88 287.45 2086.88C210.545 2086.88 155.042 2125 23.8086 2123.59C-9.01491 2123.24 -71.9308 2112.89 -91.9043 2106.15L-161.719 2115.04L-107.376 1686.38C-118.161 1378.93 -131.927 1008.31 -131.927 936.34L-66.9229 928.065V845Z" fill="url(#paint0_linear_1241_8893)"/>
<path d="M-67.2041 3413C-67.0491 3413.1 -14.6495 3446.83 57.915 3446.83C134.82 3446.83 190.324 3413 321.557 3414.25C354.379 3414.56 417.294 3423.75 437.269 3429.73L507.084 3421.84L452.74 3802.23C463.525 4075.06 477.292 4403.94 477.292 4467.81L412.289 4475.15V4700C412.289 4700 359.841 4666.17 287.169 4666.17C210.264 4666.17 154.76 4700 23.5273 4698.75C-11.0476 4698.42 -79.0131 4688.25 -95.0059 4682.35C-95.0059 4660.77 -96.411 4606.73 -98.6719 4532.86L-162 4540.02L-110.409 4178.9C-120.643 3880.74 -132.208 3552.59 -132.208 3494.05L-67.2041 3486.71V3413Z" fill="url(#paint1_linear_1241_8893)"/>
</g>
<defs>
<linearGradient id="paint0_linear_1241_8893" x1="172.823" y1="845" x2="172.823" y2="2175.98" gradientUnits="userSpaceOnUse">
<stop stop-color="#FCECF7"/>
<stop offset="0.846154" stop-color="#FFC7EC"/>
</linearGradient>
<linearGradient id="paint1_linear_1241_8893" x1="172.89" y1="3413" x2="172.89" y2="4749.32" gradientUnits="userSpaceOnUse">
<stop stop-color="white"/>
<stop offset="1" stop-color="#FFC400"/>
</linearGradient>
<clipPath id="clip0_1241_8893">
<rect width="400" height="4742" fill="white"/>
</clipPath>
</defs>
</svg>
