<svg width="768" height="3973" viewBox="0 0 768 3973" fill="none" xmlns="http://www.w3.org/2000/svg">
<g clip-path="url(#clip0_1241_8810)">
<rect width="768" height="3973" fill="#5D2E9A"/>
<rect x="-118" y="3596" width="1003" height="750" fill="#3C0C86"/>
<path d="M840 742C840 742 745.843 704.111 615.376 704.111C477.31 704.111 377.666 742 142.066 740.604C79.9947 740.236 -42.0223 728.836 -70.7334 722.225C-70.7334 686.546 -70.8388 669.365 -70.9873 649H-72C-72 534.613 -71.9527 445.966 -71.877 376.5C-71.9527 307.034 -72 218.387 -72 104H-70.9873C-70.8388 83.6354 -70.7334 66.4541 -70.7334 30.7754C-42.0223 24.1643 79.9947 12.7645 142.066 12.3965C377.666 10.9999 477.31 48.8886 615.376 48.8887C745.843 48.8887 840 11 840 11V742Z" fill="url(#paint0_linear_1241_8810)"/>
<path d="M90.3698 643.028C15.1624 643.562 -132.676 660.116 -167.463 669.716C-167.463 850.419 -168.977 981.69 -168.977 1729H936.023L936.003 1394.87V641C936.003 641 821.919 696.017 663.843 696.017C496.558 696.017 375.828 641 90.3698 643.028Z" fill="url(#paint1_linear_1241_8810)"/>
<path d="M937.915 1675.01H1004.16V1725.02L972.162 2908C971.978 2907.92 847.041 2852 673.973 2852C490.688 2852 358.411 2908 45.6504 2905.94C-36.7501 2905.39 -198.729 2888.54 -236.844 2878.77C-236.844 2837.61 -235.325 2763.31 -232.969 2670.8H-242.852C-242.852 2521.12 -273.164 1792.57 -273.164 1634.17C-235.05 1625.76 -73.0705 1611.25 9.33008 1610.78C322.091 1609 454.368 1657.22 637.652 1657.22C810.717 1657.22 935.654 1609.07 935.842 1609L937.915 1675.01Z" fill="url(#paint2_linear_1241_8810)"/>
<rect x="-118" y="2940" width="1003" height="750" fill="#3C0C86"/>
<path d="M147.058 2788.56C17.9598 2789.65 -82.6841 2805.29 -116.869 2812.98C-116.869 2957.65 -118 3749.02 -118 3885.74C111.239 3971.71 470.933 3897.18 600.634 3871.41C704.395 3850.79 889.571 3871.72 969 3885.74V2775C929.285 2796.7 824.217 2840.1 721.663 2840.1C593.47 2840.1 308.43 2787.21 147.058 2788.56Z" fill="url(#paint3_linear_1241_8810)"/>
</g>
<defs>
<linearGradient id="paint0_linear_1241_8810" x1="384" y1="11" x2="384" y2="771.113" gradientUnits="userSpaceOnUse">
<stop stop-color="#FFC7EC"/>
<stop offset="1" stop-color="#FA7BBB"/>
</linearGradient>
<linearGradient id="paint1_linear_1241_8810" x1="383.523" y1="641" x2="383.523" y2="1772.33" gradientUnits="userSpaceOnUse">
<stop stop-color="#FCECF7"/>
<stop offset="0.846154" stop-color="#FFC7EC"/>
</linearGradient>
<linearGradient id="paint2_linear_1241_8810" x1="365.496" y1="1609" x2="365.496" y2="2959.73" gradientUnits="userSpaceOnUse">
<stop stop-color="#FA7BBB"/>
<stop offset="1" stop-color="#D52F86"/>
</linearGradient>
<linearGradient id="paint3_linear_1241_8810" x1="426.066" y1="2775" x2="426.066" y2="3970.11" gradientUnits="userSpaceOnUse">
<stop stop-color="white"/>
<stop offset="1" stop-color="#FFC400"/>
</linearGradient>
<clipPath id="clip0_1241_8810">
<rect width="768" height="3973" fill="white"/>
</clipPath>
</defs>
</svg>
