<svg width="1440" height="460" viewBox="0 0 1440 460" fill="none" xmlns="http://www.w3.org/2000/svg">
<g clip-path="url(#clip0_651_6532)">
<mask id="mask0_651_6532" style="mask-type:luminance" maskUnits="userSpaceOnUse" x="-97" y="-1086" width="1775" height="1530">
<path d="M1677.55 -948.71L17.75 -1085.06L-96.5833 306.689L1563.21 443.042L1677.55 -948.71Z" fill="white"/>
</mask>
<g mask="url(#mask0_651_6532)">
<path d="M768.884 133.21C865.528 118.397 987.789 119.796 1093.04 167.749L1111.48 -157.426L-68.9297 -254.397L-97.7836 96.8343C-93.7938 99.1193 -89.7227 101.411 -85.7462 103.858C104.331 217.007 365.909 223.572 768.802 133.203L768.884 133.21Z" fill="#3C0C86"/>
<path d="M1582.25 263.066L1613.4 -116.193L1144.27 -154.733L1127.73 184.137C1146.47 187.308 1166.44 186.502 1162.82 176.744C1139.08 113.794 1308.09 83.5599 1449.34 178.915C1487.44 204.635 1527.65 235.666 1582.25 263.066Z" fill="#3C0C86"/>
<path d="M40.6641 -1588.45L-93.9098 49.6903C44.5378 124.265 185.172 201.14 767.9 119.265C877.533 103.888 993.216 117.551 1104.86 177.446C1121.49 186.397 1160.28 215.68 1170.83 221.928C1182.86 229.033 1198.24 235.271 1204.11 229.556C1211.77 222.111 1208.92 210.868 1201.66 203.503C1192.07 193.663 1179.34 183.076 1173.84 168.352C1149.77 104.397 1287.94 57.6839 1448.57 129.433C1489.58 147.726 1534.4 171.469 1587.93 194.868L1723.08 -1450.23L40.6641 -1588.45Z" fill="white"/>
<path d="M1259.67 255.16C1256.12 243.614 1237.87 237.385 1227.77 237.697C1213.89 238.107 1213.22 251.263 1216.72 262.478C1220.23 273.612 1228.17 279.728 1241.03 278.746C1255.69 277.748 1263.16 266.619 1259.76 255.167" fill="white"/>
</g>
<path d="M851 325L891 325" stroke="#F9EDED" stroke-opacity="0.6"/>
</g>
<defs>
<clipPath id="clip0_651_6532">
<rect width="1688" height="2008" fill="white" transform="translate(50.4062 -1680) rotate(4.69634)"/>
</clipPath>
</defs>
</svg>
