<svg width="400" height="217" viewBox="0 0 400 217" fill="none" xmlns="http://www.w3.org/2000/svg">
<mask id="mask0_1036_10920" style="mask-type:luminance" maskUnits="userSpaceOnUse" x="-135" y="-324" width="628" height="541">
<path d="M492.045 -275.807L-94.5938 -324L-135.004 167.901L451.635 216.094L492.045 -275.807Z" fill="white"/>
</mask>
<g mask="url(#mask0_1036_10920)">
<path d="M170.89 106.587C205.048 101.351 248.26 101.846 285.459 118.794L291.977 3.86422L-125.227 -30.4093L-135.425 93.7301C-134.015 94.5377 -132.576 95.3477 -131.17 96.2126C-63.9891 136.204 28.463 138.524 170.862 106.584L170.89 106.587Z" fill="#3C0C86"/>
<path d="M458.362 152.483L469.374 18.4378L303.562 4.81628L297.719 124.586C304.343 125.707 311.402 125.422 310.121 121.974C301.73 99.7245 361.465 89.0384 411.386 122.741C424.855 131.831 439.066 142.799 458.362 152.483Z" fill="#3C0C86"/>
<path d="M-86.4922 -501.916L-134.056 77.0675C-85.1231 103.425 -35.4173 130.596 170.542 101.658C209.291 96.2232 250.178 101.052 289.636 122.222C295.514 125.385 309.226 135.735 312.953 137.943C317.205 140.454 322.64 142.659 324.717 140.639C327.423 138.008 326.418 134.034 323.852 131.431C320.461 127.953 315.963 124.211 314.016 119.007C305.509 96.4029 354.345 79.8927 411.118 105.252C425.613 111.717 441.454 120.109 460.375 128.379L508.141 -453.066L-86.4922 -501.916Z" fill="white"/>
<path d="M344.358 149.689C343.101 145.608 336.652 143.406 333.082 143.517C328.178 143.661 327.941 148.311 329.178 152.275C330.418 156.211 333.223 158.372 337.768 158.025C342.95 157.672 345.589 153.739 344.387 149.691" fill="white"/>
</g>
</svg>
