<svg width="103" height="56" viewBox="0 0 103 56" fill="none" xmlns="http://www.w3.org/2000/svg">
<g clip-path="url(#clip0_3001_6308)">
<path fill-rule="evenodd" clip-rule="evenodd" d="M94.1683 36.1826H93.9806V34.9984H94.3561C94.45 34.9984 94.5126 35.011 94.5627 35.0362C94.6065 35.0614 94.6441 35.0992 94.6754 35.1496C94.7004 35.2 94.7129 35.2504 94.7129 35.3133C94.7129 35.3826 94.6941 35.4456 94.6566 35.5086C94.619 35.5716 94.5627 35.6157 94.4813 35.6535C94.5251 35.6787 94.5689 35.7354 94.6128 35.8236L94.8068 36.1889H94.594L94.4312 35.8803L94.3937 35.8047C94.3499 35.7291 94.3186 35.6913 94.2998 35.6913H94.1621V36.1889L94.1683 36.1826ZM94.1683 35.5401H94.2935C94.3812 35.5401 94.4375 35.5149 94.4688 35.4708C94.5001 35.4267 94.5189 35.3763 94.5189 35.3196C94.5189 35.2882 94.5126 35.2567 94.4938 35.2315C94.4813 35.2063 94.4625 35.1811 94.4312 35.1622C94.4062 35.1433 94.3624 35.1307 94.2935 35.1307H94.1558V35.5338L94.1683 35.5401ZM94.3499 36.5417C94.1809 36.5417 94.0244 36.4976 93.8804 36.4157C93.7302 36.3338 93.6113 36.2141 93.5299 36.063C93.4422 35.9118 93.3984 35.748 93.3984 35.5779C93.3984 35.4078 93.4423 35.2441 93.5236 35.0992C93.6113 34.948 93.7239 34.8283 93.8742 34.7464C94.0244 34.6582 94.1809 34.6141 94.3499 34.6141C94.5189 34.6141 94.6754 34.6582 94.8256 34.7464C94.9758 34.8283 95.0948 34.948 95.1761 35.0992C95.2575 35.2504 95.3013 35.4078 95.3013 35.5779C95.3013 35.748 95.2575 35.9118 95.1636 36.063C95.076 36.2141 94.957 36.3275 94.8131 36.4157C94.6691 36.4976 94.5126 36.5417 94.3436 36.5417M94.3499 36.3968C94.4938 36.3968 94.6253 36.359 94.7505 36.2897C94.8757 36.2204 94.9758 36.1196 95.0509 35.9937C95.126 35.8677 95.1636 35.7291 95.1573 35.5779C95.1573 35.433 95.1198 35.2945 95.0509 35.1685C94.9821 35.0425 94.8819 34.9417 94.7567 34.8661C94.6316 34.7968 94.4938 34.759 94.3499 34.759C94.2059 34.759 94.0745 34.7968 93.943 34.8661C93.8178 34.9417 93.7177 35.0362 93.6488 35.1685C93.5737 35.2945 93.5424 35.433 93.5424 35.5779C93.5424 35.7228 93.58 35.8677 93.6551 35.9937C93.7302 36.1196 93.8303 36.2204 93.9555 36.2897C94.0807 36.359 94.2122 36.3968 94.3561 36.3968" fill="#002E6D"/>
<path d="M0 55.37V37.7259C0 37.1023 0.619687 37.1086 0.619687 37.1086H3.00454C3.00454 37.1086 3.62423 37.1086 3.62423 37.7259V38.8598L3.64927 38.885C3.66805 38.885 3.68682 38.8598 3.69308 38.8535C4.60697 37.3921 6.10298 36.7244 7.80555 36.7244C12.1559 36.7244 14.1151 40.2645 14.1151 44.2393C14.1151 47.9685 12.0745 51.4582 8.02463 51.4582C6.35962 51.4582 4.79475 50.7401 3.88087 49.3606C3.88087 49.3606 3.88087 49.348 3.84957 49.348H3.83705C3.83705 49.348 3.81201 49.348 3.81201 49.3795V55.37C3.81201 55.9937 3.19233 55.9937 3.19233 55.9937H0.619687C0.619687 55.9937 0 55.9937 0 55.37ZM10.3093 44.1385C10.3093 41.9212 9.42049 39.622 6.9793 39.622C4.53811 39.622 3.67431 41.8645 3.67431 44.1385C3.67431 46.4126 4.53185 48.5732 7.00434 48.5732C9.47683 48.5732 10.3031 46.4126 10.3031 44.1385" fill="#002E6D"/>
<path d="M18.1658 41.4047H15.4742C14.8608 41.4047 14.8921 40.9827 14.9296 40.7811C15.4554 37.6819 18.4537 36.7307 21.3832 36.7307C24.1498 36.7307 27.4799 37.3543 27.4799 40.7055V47.9748C27.4799 48.8882 27.5487 49.8079 27.724 50.463C27.7866 50.715 27.9618 51.0803 27.3484 51.0803H24.5567C24.0998 51.0803 23.9808 50.6709 23.937 50.4567C23.8869 50.2236 23.8494 49.9906 23.8369 49.7575C23.8369 49.726 23.8181 49.7449 23.8118 49.7575C22.6037 51.0047 20.8448 51.4583 19.1673 51.4583C16.5383 51.4583 14.4414 50.1354 14.4414 47.2693C14.4414 44.1071 16.8075 43.3512 19.1673 43.0236C21.5021 42.6709 23.6741 42.7528 23.6741 41.1906C23.6741 39.5402 22.5474 39.2945 21.2016 39.2945C19.9685 39.2945 19.111 39.7228 18.7917 40.7811C18.7354 40.9701 18.6728 41.4047 18.172 41.4047M23.6679 44.2709C23.6679 44.2394 23.6491 44.2646 23.6366 44.2709C22.9793 44.8126 21.6648 44.8441 20.5006 45.0583C19.3238 45.3039 18.2472 45.7071 18.2472 47.1118C18.2472 48.5165 19.3488 48.8945 20.5819 48.8945C23.5614 48.8945 23.6741 46.5134 23.6741 45.6819V44.2772L23.6679 44.2709Z" fill="#002E6D"/>
<path d="M64.4658 41.4047H61.7742C61.1608 41.4047 61.1921 40.9827 61.2297 40.7811C61.7555 37.6819 64.7538 36.7307 67.6769 36.7307C70.4436 36.7307 73.7674 37.3543 73.7674 40.7055V47.9748C73.7674 48.8882 73.8425 49.8079 74.0052 50.463C74.0741 50.715 74.2494 51.0803 73.6297 51.0803H70.8379C70.381 51.0803 70.2621 50.6709 70.2183 50.4567C70.1682 50.2236 70.1306 49.9906 70.1181 49.7575C70.1181 49.726 70.0993 49.7449 70.0931 49.7575C68.885 51.0047 67.1261 51.4583 65.4485 51.4583C62.8196 51.4583 60.7227 50.1354 60.7227 47.2693C60.7227 44.1071 63.0825 43.3512 65.4485 43.0236C67.7833 42.6709 69.9554 42.7528 69.9554 41.1843C69.9554 39.5339 68.8287 39.2882 67.4891 39.2882C66.256 39.2882 65.3922 39.7165 65.0792 40.7748C65.0229 40.9638 64.9603 41.3984 64.4658 41.3984M69.9616 44.2709C69.9616 44.2394 69.9428 44.2646 69.9303 44.2709C69.2731 44.8126 67.9523 44.8441 66.7943 45.0583C65.6113 45.3039 64.5409 45.7071 64.5409 47.1118C64.5409 48.5165 65.6426 48.8945 66.8757 48.8945C69.8552 48.8945 69.9616 46.5134 69.9616 45.6819V44.2772V44.2709Z" fill="#002E6D"/>
<path d="M83.79 41.4047H81.0985C80.485 41.4047 80.5163 40.9827 80.5476 40.7811C81.0797 37.6819 84.078 36.7307 87.0011 36.7307C89.7678 36.7307 93.0979 37.3543 93.0979 40.7055V47.9748C93.0979 48.8882 93.1667 49.8079 93.3357 50.463C93.4046 50.715 93.5798 51.0803 92.9601 51.0803H90.1684C89.7115 51.0803 89.5926 50.6709 89.5487 50.4567C89.4987 50.2236 89.4611 49.9906 89.4486 49.7575C89.4486 49.726 89.4236 49.7449 89.4173 49.7575C88.2092 51.0047 86.4503 51.4583 84.7728 51.4583C82.1438 51.4583 80.0469 50.1354 80.0469 47.2693C80.0469 44.1071 82.4067 43.3512 84.7728 43.0236C87.1075 42.6709 89.2858 42.7528 89.2858 41.1843C89.2858 39.5339 88.1591 39.2882 86.8134 39.2882C85.5865 39.2882 84.7227 39.7165 84.4035 40.7748C84.3471 40.9638 84.2908 41.3984 83.79 41.3984M89.2858 44.2709C89.2858 44.2394 89.2671 44.2646 89.2545 44.2709C88.5973 44.8126 87.2766 44.8441 86.1123 45.0583C84.9355 45.3039 83.8589 45.7071 83.8589 47.1118C83.8589 48.5165 84.9606 48.8945 86.1937 48.8945C89.1732 48.8945 89.2858 46.5134 89.2858 45.6819V44.2772V44.2709Z" fill="#002E6D"/>
<path d="M28.7578 50.4566V37.7322C28.7578 37.1086 29.3712 37.1086 29.3712 37.1086H31.7624C31.7624 37.1086 32.382 37.1086 32.382 37.7322V39.6724L32.4071 39.6976C32.4259 39.6976 32.4446 39.6787 32.4509 39.6661C33.1582 37.9275 35.0298 36.7244 36.8701 36.7244C36.9389 36.7244 37.0078 36.7244 37.0829 36.737C37.2957 36.7559 37.7026 36.8567 37.7026 37.3606V39.8047C37.7026 40.4346 37.3145 40.359 37.0829 40.3338C36.8325 40.3086 36.5696 40.296 36.338 40.296C33.5463 40.296 32.5761 42.3244 32.5761 44.7811V50.4566C32.5761 51.0803 31.9564 51.0803 31.9564 51.0803H29.3838C29.3838 51.0803 28.7641 51.0803 28.7641 50.4566" fill="#002E6D"/>
<path d="M38.7227 50.4567V37.726C38.7227 37.1024 39.3423 37.1087 39.3423 37.1087H41.7022C41.7022 37.1087 42.3218 37.1087 42.3218 37.7323V38.9732L42.3469 38.9984C42.3782 38.9984 42.3907 38.9795 42.397 38.9669C43.386 37.5559 44.8319 36.7307 46.6158 36.7307C48.3998 36.7307 49.9208 37.3795 50.672 39.0551C51.4732 37.8394 52.9254 36.7307 54.8596 36.7307C57.8078 36.7307 59.9297 38.1102 59.9297 41.726V50.4567C59.9297 51.0803 59.31 51.0803 59.31 51.0803H56.7374C56.7374 51.0803 56.1177 51.0803 56.1177 50.4567V43.1622C56.1177 41.2976 55.955 39.7543 53.7829 39.7543C51.6109 39.7543 51.2291 41.537 51.2291 43.2945V50.4567C51.2291 51.0866 50.6094 51.0803 50.6094 51.0803H48.0367C48.0367 51.0803 47.4171 51.0803 47.4171 50.4567V43.2441C47.4171 41.6252 47.5235 39.7543 45.1136 39.7543C44.3624 39.7543 42.5347 40.2394 42.5347 42.9732V50.4567C42.5347 51.074 41.915 51.0803 41.915 51.0803H39.3423C39.3423 51.0803 38.7227 51.0803 38.7227 50.4567Z" fill="#002E6D"/>
<path d="M75.25 50.4567V33.5307C75.25 33.5307 75.25 32.9071 75.8697 32.9071H78.4486C79.0683 32.9071 79.0683 33.5307 79.0683 33.5307V50.4567C79.0683 51.0803 78.4486 51.0803 78.4486 51.0803H75.8697C75.8697 51.0803 75.25 51.0803 75.25 50.4567Z" fill="#002E6D"/>
<path d="M99.4679 33.537V36.4914C99.4679 36.4914 99.4679 37.115 100.088 37.115H101.64C102.26 37.115 102.26 37.7323 102.26 37.7323V39.0614C102.26 39.6851 101.64 39.6788 101.64 39.6788H100.088C100.088 39.6788 99.4679 39.6788 99.4679 40.3024V46.5953C99.4679 47.8929 99.7934 48.2142 101.077 48.2142C101.264 48.2142 101.452 48.2142 101.64 48.1953C102.21 48.1449 102.26 48.1197 102.26 48.8189V50.5638C102.26 50.5638 102.26 51.1307 101.64 51.1874C101.127 51.2378 100.557 51.2441 100.025 51.2441C97.6902 51.2441 95.6496 50.7024 95.6496 47.9181V40.2961C95.6496 40.2961 95.6496 39.6725 95.0299 39.6725H93.9595C93.9595 39.6725 93.3398 39.6725 93.3398 39.0551V37.726C93.3398 37.726 93.3398 37.1087 93.9595 37.1087H95.0299C95.6496 37.1087 95.6496 36.4851 95.6496 36.4851V33.5307C95.6496 33.5307 95.6496 32.9071 96.2693 32.9071H98.8482C99.4679 32.9071 99.4679 33.5307 99.4679 33.5307" fill="#002E6D"/>
<path d="M59.2515 27.811C59.2515 30.6268 56.6037 32.9071 53.3425 32.9071C50.0813 32.9071 47.4336 30.6268 47.4336 27.811C47.4336 24.9953 50.0813 22.715 53.3425 22.715C56.6037 22.715 59.2515 24.9953 59.2515 27.811Z" fill="#FFD100"/>
<path d="M56.2553 3.45197C55.2413 1.54961 54.5027 0 53.3572 0C52.2117 0 51.4668 1.55591 50.4528 3.45197C49.4325 5.35433 48.5938 7.60315 48.5938 8.98898H48.6063C48.6063 11.2567 50.7345 13.0898 53.3635 13.0898C55.9924 13.0898 58.1144 11.2567 58.1144 8.98898C58.1144 7.59685 57.2756 5.35433 56.2616 3.45197" fill="#82CFF5"/>
<path d="M30.5037 13.6063C28.0875 13.411 26.1596 13.1842 25.5837 14.0472C25.0141 14.8976 26.1972 16.2393 27.5993 17.9464C29.0014 19.6535 30.8354 21.411 32.2313 22.1039H32.2376C34.5097 23.2252 37.4204 22.5574 38.7349 20.5921C40.0494 18.633 39.2669 16.1259 36.9947 14.9921C35.5989 14.2929 32.9198 13.7952 30.5037 13.6063Z" fill="#82CFF5"/>
<path d="M79.088 17.9528C80.4901 16.2457 81.6856 14.9166 81.1098 14.0599C80.5339 13.2032 78.5997 13.4237 76.1836 13.6126C73.7674 13.8016 71.0821 14.2993 69.6925 14.9922V15.0048C67.4266 16.1386 66.6442 18.6457 67.9586 20.6048C69.2731 22.5638 72.1775 23.2378 74.456 22.104C75.8518 21.4111 77.6921 19.6599 79.0942 17.9528" fill="#82CFF5"/>
<path d="M64.9375 20.4095C65.9077 18.9607 66.6025 16.1701 66.8779 13.6568C67.1471 11.1434 67.46 9.13392 66.2645 8.53549C65.0689 7.93707 63.2036 9.17801 60.8062 10.6331C58.4151 12.0882 55.9614 14.0032 54.9912 15.452H55.0037C53.4201 17.8268 54.359 20.8505 57.1069 22.2174C59.8485 23.5843 63.3601 22.7717 64.9437 20.4095" fill="#1E9EDA"/>
<path d="M51.7045 15.452C50.7343 13.9969 48.2806 12.0882 45.8895 10.6268C43.4984 9.1654 41.6393 7.92446 40.4438 8.52288C39.2482 9.11501 39.5549 11.1308 39.8241 13.6441C40.0932 16.1575 40.7818 18.9481 41.7582 20.3969H41.7708C43.3544 22.7591 46.866 23.5654 49.6076 22.2048C52.3493 20.8378 53.2944 17.8142 51.7108 15.4457" fill="#1E9EDA"/>
<path d="M40.1167 22.8535C38.17 22.8535 35.0277 23.7291 32.3675 24.7811C29.7072 25.8393 27.5352 26.6078 27.5352 27.7984C27.5352 28.989 29.7072 29.7638 32.3737 30.822C35.034 31.8803 38.1762 32.7559 40.1229 32.7559V32.7433C43.2902 32.7433 45.8566 30.526 45.8566 27.7984C45.8566 25.0708 43.2902 22.8535 40.1229 22.8535" fill="#1E9EDA"/>
<path d="M66.5759 32.7685C68.5163 32.7685 71.6648 31.8929 74.3251 30.8409C76.9854 29.7826 79.1574 29.0141 79.1574 27.8236C79.1574 26.633 76.9854 25.8582 74.3251 24.7999C71.6648 23.7417 68.5163 22.8661 66.5759 22.8661V22.8787C63.4086 22.8787 60.8359 25.096 60.8359 27.8236C60.8359 30.5511 63.4023 32.7685 66.5759 32.7685Z" fill="#1E9EDA"/>
</g>
<defs>
<clipPath id="clip0_3001_6308">
<rect width="102.261" height="56" fill="white"/>
</clipPath>
</defs>
</svg>
