<svg width="1920" height="467" viewBox="0 0 1920 467" fill="none" xmlns="http://www.w3.org/2000/svg">
<g clip-path="url(#clip0_682_6561)">
<mask id="mask0_682_6561" style="mask-type:luminance" maskUnits="userSpaceOnUse" x="-29" y="-1082" width="1775" height="1530">
<path d="M1745.53 -944.71L85.7344 -1081.06L-28.5989 310.689L1631.2 447.042L1745.53 -944.71Z" fill="white"/>
</mask>
<g mask="url(#mask0_682_6561)">
<path d="M836.872 137.21C933.516 122.397 1055.78 123.796 1161.03 171.75L1179.47 -153.426L-0.941406 -250.397L-29.7953 100.835C-25.8055 103.12 -21.7344 105.411 -17.7579 107.858C172.32 221.007 433.898 227.572 836.791 137.203L836.872 137.21Z" fill="#3C0C86"/>
<path d="M1650.23 267.066L1681.39 -112.192L1212.25 -150.732L1195.72 188.137C1214.46 191.308 1234.43 190.502 1230.81 180.745C1207.07 117.795 1376.08 87.5602 1517.32 182.916C1555.43 208.636 1595.64 239.666 1650.23 267.066Z" fill="#3C0C86"/>
<path d="M108.648 -1584.45L-25.9254 53.6909C112.522 128.266 253.156 205.141 835.885 123.266C945.517 107.889 1061.2 121.551 1172.84 181.447C1189.47 190.397 1228.27 219.68 1238.81 225.929C1250.84 233.034 1266.22 239.271 1272.1 233.556C1279.75 226.112 1276.91 214.869 1269.65 207.504C1260.05 197.664 1247.33 187.077 1241.82 172.353C1217.75 108.397 1355.92 61.6845 1516.55 133.434C1557.56 151.726 1602.38 175.47 1655.92 198.869L1791.06 -1446.23L108.648 -1584.45Z" fill="white"/>
<path d="M1327.66 259.16C1324.1 247.614 1305.86 241.386 1295.75 241.697C1281.88 242.107 1281.21 255.263 1284.71 266.478C1288.22 277.613 1296.15 283.728 1309.01 282.746C1323.67 281.749 1331.14 270.619 1327.74 259.167" fill="white"/>
</g>
</g>
<path d="M1759.77 -1385L1625.2 253.136C1763.64 327.711 1904.28 404.586 2487.01 322.711C2596.64 307.334 2712.32 320.996 2823.96 380.892C2840.59 389.842 2879.39 419.125 2889.93 425.374C2901.96 432.479 2917.34 438.716 2923.22 433.001C2930.87 425.557 2928.03 414.314 2920.77 406.949C2911.18 397.109 2898.45 386.522 2892.94 371.798C2868.87 307.842 3007.04 261.13 3167.68 332.879C3208.68 351.171 3253.51 374.915 3307.04 398.314L3442.18 -1246.79L1759.77 -1385Z" fill="#3C0C86"/>
<path d="M1759.77 -1453L1625.2 185.136C1763.64 259.711 1904.28 336.586 2487.01 254.711C2596.64 239.334 2712.32 252.996 2823.96 312.892C2840.59 321.842 2879.39 351.125 2889.93 357.374C2901.96 364.479 2917.34 370.716 2923.22 365.001C2930.87 357.557 2928.03 346.314 2920.77 338.949C2911.18 329.109 2898.45 318.522 2892.94 303.798C2868.87 239.842 3007.04 193.13 3167.68 264.879C3208.68 283.171 3253.51 306.915 3307.04 330.314L3442.18 -1314.79L1759.77 -1453Z" fill="white"/>
<defs>
<clipPath id="clip0_682_6561">
<rect width="1688" height="2008" fill="white" transform="translate(118.395 -1676) rotate(4.69634)"/>
</clipPath>
</defs>
</svg>
