<svg width="768" height="304" viewBox="0 0 768 304" fill="none" xmlns="http://www.w3.org/2000/svg">
<g clip-path="url(#clip0_1036_12824)">
<mask id="mask0_1036_12824" style="mask-type:luminance" maskUnits="userSpaceOnUse" x="-154" y="-613" width="1053" height="908">
<path d="M898.423 -531.328L-85.875 -612.188L-153.677 213.153L830.62 294.014L898.423 -531.328Z" fill="white"/>
</mask>
<g mask="url(#mask0_1036_12824)">
<path d="M359.577 110.274C416.889 101.49 489.393 102.32 551.808 130.757L562.744 -62.0795L-137.266 -119.586L-154.377 88.7029C-152.011 90.058 -149.596 91.417 -147.238 92.8681C-34.5177 159.968 120.604 163.861 359.529 110.27L359.577 110.274Z" fill="#3C0C86"/>
<path d="M841.92 187.282L860.396 -37.627L582.188 -60.4821L572.382 140.475C583.497 142.356 595.34 141.878 593.193 136.092C579.112 98.7607 679.339 80.831 763.101 137.379C785.699 152.631 809.543 171.033 841.92 187.282Z" fill="#3C0C86"/>
<path d="M-72.2812 -910.706L-152.087 60.7466C-69.984 104.971 13.4153 150.56 358.987 102.006C424.002 92.8872 492.605 100.989 558.81 136.509C568.672 141.817 591.678 159.182 597.932 162.888C605.066 167.101 614.186 170.8 617.67 167.411C622.211 162.996 620.524 156.329 616.219 151.961C610.53 146.126 602.982 139.848 599.716 131.116C585.442 93.1888 667.381 65.4871 762.64 108.036C786.959 118.884 813.539 132.964 845.285 146.84L925.43 -828.744L-72.2812 -910.706Z" fill="white"/>
<path d="M650.624 182.594C648.515 175.747 637.694 172.054 631.704 172.238C623.475 172.481 623.077 180.283 625.154 186.934C627.234 193.537 631.94 197.164 639.565 196.581C648.26 195.99 652.689 189.39 650.672 182.598" fill="white"/>
</g>
</g>
<defs>
<clipPath id="clip0_1036_12824">
<rect width="1001.02" height="1190.79" fill="white" transform="translate(-66.5078 -965) rotate(4.69634)"/>
</clipPath>
</defs>
</svg>
