<svg width="299" height="287" viewBox="0 0 299 287" fill="none" xmlns="http://www.w3.org/2000/svg">
<g clip-path="url(#clip0_633_4303)">
<path d="M253.373 23.3128C253.373 29.2567 258.184 34.0896 264.141 34.0896C270.099 34.0896 274.91 29.2752 274.91 23.3128C274.91 17.3504 270.099 12.536 264.141 12.536C258.184 12.536 253.373 17.3504 253.373 23.3128Z" fill="white"/>
<path d="M281.423 0C283.976 3.74041 288.824 16.7948 285.253 27.2753C282.311 35.9227 275.04 47.9031 251.245 42.9776C237.331 40.089 228.395 42.0888 225.027 43.959C225.027 43.959 233.557 44.3294 240.514 47.2921C263.994 57.2912 281.423 77.2709 283.828 104.176C290.545 90.8252 296.021 68.3828 298.186 51.8657C302.664 17.9428 287.029 2.29609 281.423 0Z" fill="white"/>
<path d="M0 62.9018H33.619C56.5066 62.9018 73.1588 78.1597 73.1588 99.1949C73.1588 120.23 56.6546 135.488 34.5441 135.488H26.4585V167.263H0V62.8833V62.9018ZM33.619 111.36C41.4085 111.36 46.7002 106.528 46.7002 99.2134C46.7002 91.8992 41.4085 87.0663 33.619 87.0663H26.4585V111.379H33.619V111.36Z" fill="white"/>
<path d="M79.9883 62.9019H115.161C137.272 62.9019 153.147 77.382 153.147 97.8061C153.147 109.953 147.541 119.934 138.364 126.155L160.937 167.281H130.574L113.293 132.692H106.447V167.281H79.9883V62.9019ZM113.607 110.101C121.545 110.101 126.689 105.268 126.689 97.9543C126.689 90.6401 121.397 85.4924 113.607 85.4924H106.447V110.101H113.607Z" fill="white"/>
<path d="M158.789 115.101C158.789 83.937 182.139 60.5687 213.279 60.5687C244.419 60.5687 267.769 83.937 267.769 115.101C267.769 146.265 244.567 169.633 213.279 169.633C181.991 169.633 158.789 146.117 158.789 115.101ZM239.737 115.101C239.737 99.0468 228.525 87.0478 213.279 87.0478C198.033 87.0478 186.82 99.0468 186.82 115.101C186.82 131.155 198.033 143.154 213.279 143.154C228.525 143.154 239.737 131.303 239.737 115.101Z" fill="white"/>
<path d="M79.9883 180.206H141.472V204.833H106.447V219.943H131.666V243.312H106.447V259.977H142.249V284.604H79.9883V180.206Z" fill="white"/>
<path d="M181.269 180.206H154.811V284.586H181.269V180.206Z" fill="white"/>
<path d="M221.234 227.887V284.604H196.33V178.651H211.909L265.603 236.923V180.206H290.526V286.159H274.947L221.234 227.887Z" fill="white"/>
<path d="M66.4609 180.206H0V205.148H20.0012V284.604H46.4597V205.148H66.4609V180.206Z" fill="white"/>
<path d="M274.91 23.3128C274.91 17.3689 270.1 12.536 264.142 12.536C262.162 12.536 260.33 13.073 258.739 13.9988C258.517 16.1283 258.48 18.4429 259.017 19.702C259.979 21.887 263.605 22.6647 264.826 25.2015C265.807 27.2569 265.344 31.8306 263.938 34.0526C264.012 34.0526 264.086 34.0526 264.16 34.0526C270.1 34.0526 274.929 29.2197 274.929 23.2758L274.91 23.3128Z" fill="#FFD100"/>
<path d="M263.05 53.0138C276.483 62.3648 287.196 76.1043 289.934 88.8069C293.783 76.882 296.743 63.0314 298.205 51.8843C302.645 17.9614 287.011 2.31465 281.423 0.0185547C283.976 3.75896 288.824 16.8133 285.253 27.2939C282.311 35.9413 275.04 47.9217 251.245 42.9962C237.331 40.1076 228.395 42.1074 225.027 43.9776C228.58 42.6258 249.58 43.6628 263.031 53.0138H263.05Z" fill="#FFD100"/>
</g>
<defs>
<clipPath id="clip0_633_4303">
<rect width="299" height="286.16" fill="white"/>
</clipPath>
</defs>
</svg>
