<svg width="132" height="132" viewBox="0 0 132 132" fill="none" xmlns="http://www.w3.org/2000/svg">
<g clip-path="url(#clip0_633_4272)">
<path d="M66.0103 132.021C102.467 132.021 132.021 102.467 132.021 66.0103C132.021 29.5538 102.467 0 66.0103 0C29.5538 0 0 29.5538 0 66.0103C0 102.467 29.5538 132.021 66.0103 132.021Z" fill="white"/>
<path d="M22.4965 57.9473L10.2266 53.9467L11.3195 50.6266L15.7944 52.0907L17.2586 47.6158L12.7837 46.1516L13.8766 42.8315L26.1466 46.8322L25.0536 50.1729L20.4137 48.6469L18.9496 53.1218L23.5895 54.6478L22.4965 57.9886V57.9473Z" fill="#3C0C86"/>
<path d="M27.197 44.4812L20 32.7268L22.4334 29.6129L35.5901 33.7167L33.301 36.6449L30.8058 35.7994L28.0425 39.3464L29.4654 41.5529L27.197 44.4606V44.4812ZM26.3309 36.8924L28.0013 34.7477L23.8357 33.1805L23.7944 33.2424L26.3309 36.8924Z" fill="#3C0C86"/>
<path d="M33.1153 27.4476C31.0325 24.2925 31.8987 20.0856 35.3631 17.7966C37.8171 16.1675 40.1474 16.3324 41.6115 16.683L40.8691 19.7763C39.7762 19.6113 38.5595 19.5494 37.1366 20.4774C35.425 21.6116 34.9919 23.7563 36.1055 25.4473C37.2191 27.1383 39.3637 27.6126 41.0754 26.4784C42.4983 25.5504 42.9726 24.3749 43.2406 23.2614L46.3751 23.7975C46.1483 25.3235 45.3028 27.5507 42.8488 29.1592C39.3844 31.4482 35.1775 30.5821 33.0947 27.427L33.1153 27.4476Z" fill="#3C0C86"/>
<path d="M49.9037 24.4987L47.3672 11.8576L50.7904 11.1771L51.5534 14.9715L53.6362 14.559C56.4408 14.0023 58.7092 15.5077 59.2247 18.0441C59.7403 20.5806 58.2142 22.849 55.4097 23.4058L49.9037 24.5194V24.4987ZM52.7289 20.7456L54.6261 20.3744C55.4715 20.2094 55.9458 19.467 55.8015 18.7246C55.6571 17.9823 54.9354 17.4873 54.0899 17.6523L52.1927 18.0235L52.7289 20.725V20.7456ZM61.39 22.2097L58.8535 9.56858L62.2767 8.88806L64.8132 21.5292L61.39 22.2097Z" fill="#3C0C86"/>
<path d="M82.4247 27.7982L83.1052 25.1174L68.4844 21.3436L71.7014 8.8468L75.0833 9.71292L72.6912 18.9927L75.8051 19.797L78.1972 10.5172L81.5792 11.3833L79.1871 20.6631L82.301 21.4673L84.6931 12.1875L88.0751 13.0536L85.6829 22.3334L87.2914 22.7459L85.786 28.6231L82.4041 27.757L82.4247 27.7982Z" fill="#3C0C86"/>
<path d="M87.8878 27.4064L99.7041 20.3125L102.797 22.7665L98.5699 35.8819L95.6416 33.5723L96.5077 31.0771L92.9814 28.2725L90.7542 29.6748L87.8672 27.3858L87.8878 27.4064ZM95.456 26.5815L97.6007 28.2725L99.1885 24.1275L99.1267 24.0863L95.456 26.5815Z" fill="#3C0C86"/>
<path d="M100.117 38.0679L110.902 30.9946L116.305 39.2433L113.686 40.9549L110.201 35.6345L108.696 36.6244L111.377 40.7075L108.902 42.316L106.221 38.2329L104.654 39.264L108.242 44.7287L105.623 46.4403L100.117 38.0473V38.0679Z" fill="#3C0C86"/>
<path d="M107.646 52.1319L116.864 49.4717L115.853 46.0278L119.049 45.0999L122.019 55.3695L118.823 56.2975L117.812 52.833L108.594 55.4932L107.625 52.1319H107.646Z" fill="#3C0C86"/>
<path d="M22.3143 93.891L23.0566 95.3346L17.7362 98.036L16.169 94.984L18.5817 93.7467L15.5503 87.787L13.1376 89.0243L11.5703 85.9723L16.8907 83.2708L17.2207 83.9101C18.128 84.3225 20.2521 84.3225 22.871 83.0646L26.4386 81.3118L30.6661 89.6223L22.2936 93.891H22.3143ZM20.747 90.8184L26.2324 88.0345L25.057 85.7248L24.3971 86.0342C21.7575 87.3127 19.6953 87.4571 18.8498 87.0859L20.747 90.7978V90.8184Z" fill="#3C0C86"/>
<path d="M27.883 96.778C30.3988 94.056 34.6263 93.891 37.6164 96.6543C40.6066 99.4176 40.7716 103.645 38.2351 106.367C35.7192 109.089 31.4918 109.254 28.5016 106.491C25.5115 103.728 25.3465 99.5001 27.883 96.778ZM35.6367 103.996C36.9978 102.532 36.9153 100.366 35.4512 99.0052C33.987 97.6441 31.8217 97.7266 30.4607 99.1908C29.0996 100.655 29.1821 102.82 30.6463 104.181C32.1104 105.542 34.2757 105.46 35.6367 103.996Z" fill="#3C0C86"/>
<path d="M46.2357 103.48L55.1031 107.151L50.257 118.843L47.0812 117.524L50.69 108.842L48.0298 107.749L47.7411 108.409C44.8747 114.946 42.5856 116.059 40.0904 115.028C39.513 114.801 38.9768 114.348 38.75 114.08L39.9667 111.151C40.1317 111.296 40.3997 111.523 40.6472 111.626C41.6577 112.038 42.7506 111.523 44.6684 107.151L46.2563 103.48H46.2357Z" fill="#3C0C86"/>
<path d="M57.3097 120.369L58.1964 107.728L61.6196 107.976L61.3516 111.77L63.5993 111.935C66.4039 112.121 68.1567 114.162 67.9918 116.678C67.8062 119.215 65.7852 120.967 62.9807 120.782L57.2891 120.39L57.3097 120.369ZM60.9597 117.524L63.0425 117.668C63.888 117.73 64.5273 117.152 64.5892 116.41C64.6304 115.668 64.0942 115.008 63.2281 114.946L61.1453 114.802L60.9597 117.503V117.524Z" fill="#3C0C86"/>
<path d="M74.4066 120.844L70.6328 108.759L73.9117 107.728L76.7162 116.719L79.7476 115.771L76.9431 106.78L80.2219 105.748L83.0265 114.74L86.0579 113.791L83.2533 104.8L86.5322 103.769L90.306 115.853L74.4066 120.802V120.844Z" fill="#3C0C86"/>
<path d="M96.7608 111.646L88.8008 101.768L96.3484 95.6851L98.2868 98.0772L93.4201 101.995L94.5336 103.377L98.2662 100.366L100.081 102.614L96.3484 105.625L97.5032 107.068L102.514 103.026L104.453 105.419L96.7608 111.605V111.646Z" fill="#3C0C86"/>
<path d="M104.164 95.9738L102.184 96.51L101.813 94.7571L100.493 95.912L99.2147 94.1591L100.823 93.2105L99.0703 92.2413L100.473 90.3647L101.895 91.767L102.349 89.9523L104.391 90.6947L103.648 92.2825L105.442 92.1588L105.484 94.221L103.463 94.056L104.185 95.9532L104.164 95.9738Z" fill="#3C0C86"/>
<path d="M111.75 82.2397L110.039 83.3945L109.111 81.8479L108.224 83.3739L106.451 82.116L107.667 80.7137L105.688 80.3425L106.43 78.1153L108.245 79.0021L108.1 77.1461L110.266 77.1874L110.08 78.9402L111.73 78.2391L112.431 80.1775L110.451 80.6724L111.75 82.2397Z" fill="#3C0C86"/>
<path fill-rule="evenodd" clip-rule="evenodd" d="M42.1114 61.3704C44.4005 62.319 46.7926 61.9684 48.1742 60.2568L53.6596 62.6696L59.0213 65.0411L63.7024 67.1033L62.362 70.1553C62.1764 70.609 63.0013 71.3926 63.455 71.5782L64.218 71.8875C64.5686 72.0319 65.2697 72.0731 65.7028 71.8875C65.8471 71.8257 65.9502 71.7432 65.9915 71.6194L67.1463 68.6087L69.9302 69.8253C70.3839 70.0109 71.1675 69.1861 71.3531 68.7324L71.6625 67.9694C71.848 67.5157 71.8893 66.3815 71.415 66.1959L68.4867 65.0823L74.4876 49.286C75.0032 49.3273 75.4981 49.2448 75.9518 49.1005C77.3541 48.6674 78.5089 47.492 79.1688 45.8835C81.3959 40.4599 81.7259 39.3257 79.9318 38.3359L77.2303 44.5637C77.1685 44.708 77.0447 44.8317 76.9004 44.8936C76.7767 44.9555 76.6323 44.9555 76.5086 44.8936L76.3436 44.8317C76.2199 44.7699 76.1168 44.6874 76.0755 44.543C76.0136 44.3987 76.0136 44.2337 76.0755 44.0687L78.1789 37.5523C78.0346 37.4904 77.9109 37.4491 77.7665 37.3873C77.519 37.2842 77.2922 37.1811 77.0654 37.0986L73.9515 43.2439C73.9102 43.3676 73.7865 43.4913 73.6421 43.5532C73.5184 43.6151 73.3741 43.6151 73.2503 43.5532L73.0854 43.4913C72.9616 43.4295 72.8585 43.347 72.8173 43.2026C72.7554 43.0583 72.7554 42.8933 72.8173 42.7489L75.2506 36.4593C73.4359 36.0262 72.941 37.2223 70.7963 42.4602C70.0746 44.1925 70.1364 46.0072 71.0232 47.3476C71.2706 47.7394 71.6006 48.09 71.9924 48.3787L65.1666 63.845L60.2174 61.9684L54.8969 59.9475L49.2466 57.8028C49.5353 55.5551 48.0711 53.5754 45.7409 52.6268C42.9982 51.4926 37.9871 51.3482 36.8529 54.0909C35.7187 56.8542 39.3688 60.2568 42.1321 61.391M46.772 50.5234C47.535 51.1008 48.6279 51.0183 49.2878 50.3171C53.2266 46.1103 58.7326 43.4088 64.8366 43.0995V45.3885C64.8366 45.9659 65.2285 46.4815 65.7852 46.5846C66.507 46.7083 67.1257 46.1515 67.1257 45.4504V40.5424V38.9545C67.1257 38.4184 66.6926 37.9647 66.1564 37.9647C57.8046 37.9234 50.2983 41.5529 45.1428 47.327C44.5654 47.9663 44.6273 48.9149 45.3284 49.4304L46.772 50.5234ZM66.0121 65.371C66.4451 65.3504 66.7957 65.6597 66.8163 66.0722C66.8576 66.4846 66.5276 66.8558 66.1152 66.8764C65.6821 66.897 65.3316 66.5877 65.2903 66.1753C65.2697 65.7629 65.579 65.3917 65.9915 65.371H66.0121Z" fill="#3C0C86"/>
<path d="M84.8605 45.203C84.3243 44.7081 83.4582 44.8112 83.0458 45.4092C82.5509 46.1103 82.0147 46.8527 81.4991 47.5539C81.128 48.0488 81.2311 48.7293 81.6847 49.1417C85.9741 53.1217 88.758 58.7309 89.0261 64.9586L86.8196 64.8968C86.1184 64.8968 85.5616 65.4742 85.6441 66.1959C85.7266 66.7527 86.2422 67.1652 86.7989 67.1858L89.0055 67.2477C89.0055 67.2477 89.0055 67.4539 89.0055 67.5364C88.2631 78.5071 79.6019 87.5807 68.6724 88.7974C68.1981 88.8593 67.7238 88.8799 67.2495 88.9005L67.3114 86.9002C67.3114 86.3434 66.9814 85.7866 66.4246 85.6835C65.7235 85.5392 65.043 86.0547 65.0223 86.7559L64.9605 88.9005C53.2679 88.3437 43.8438 78.9815 43.1426 67.3302H45.3285C45.906 67.3302 46.4215 66.9383 46.5246 66.3815C46.6483 65.6598 46.0915 65.0411 45.3904 65.0411H43.122H39.0389C38.4821 65.0411 38.0078 65.4948 38.0078 66.0516C38.0491 82.4459 52.2368 95.5614 68.9611 93.8704C82.159 92.53 92.7793 81.8066 93.9753 68.5675C94.8208 59.3083 91.1089 50.8327 84.8605 45.1617" fill="#3C0C86"/>
</g>
<defs>
<clipPath id="clip0_633_4272">
<rect width="132" height="132" fill="white"/>
</clipPath>
</defs>
</svg>
