<svg width="132" height="132" viewBox="0 0 132 132" fill="none" xmlns="http://www.w3.org/2000/svg">
<g clip-path="url(#clip0_633_4343)">
<path d="M66 132C102.451 132 132 102.451 132 66C132 29.5492 102.451 0 66 0C29.5492 0 0 29.5492 0 66C0 102.451 29.5492 132 66 132Z" fill="white"/>
<path d="M22.0226 78.165L19.9195 76.7836C20.3112 76.2269 20.6823 75.2991 20.4968 74.1857C20.3112 73.1135 19.7751 72.7424 19.3215 72.8042C18.8679 72.8867 18.4762 73.4228 18.6411 74.33L18.8679 75.7114L16.4349 76.1238L16.2494 74.9898C16.105 74.0826 15.6514 73.7527 15.1978 73.8352C14.7442 73.9176 14.4143 74.33 14.5793 75.3197C14.7236 76.165 15.239 76.7836 15.672 77.1341L14.1256 79.1135C13.3421 78.598 12.1669 77.2372 11.8576 75.4228C11.404 72.763 12.6205 71.0516 14.2287 70.7836C15.3834 70.598 16.3731 71.2991 16.8267 72.2888C16.9298 71.3197 17.6102 69.897 19.136 69.6496C20.8885 69.3609 22.6617 70.6187 23.1566 73.5259C23.4865 75.5259 22.7236 77.3609 22.0432 78.1857L22.0226 78.165Z" fill="#D6006D"/>
<path d="M21.877 68.7835L11.3203 64.0206L11.5265 60.7217L22.5987 57.3608L22.3925 60.4742L20.2688 61.0722L20.0213 64.8454L22.0626 65.7114L21.8564 68.8041L21.877 68.7835ZM17.6914 63.9382L17.8358 61.6495L14.2069 62.5361V62.598L17.6914 63.9382Z" fill="#D6006D"/>
<path d="M23.0319 56.3711L12.7227 53.0515L15.135 45.5464L17.568 46.3299L16.0422 51.0515L17.2175 51.4227L17.8567 49.4433C18.5783 47.2371 20.434 46.2062 22.3515 46.8247C24.269 47.4433 25.2587 49.3814 24.5577 51.5876L23.0113 56.3711H23.0319ZM21.5062 52.8041L22.1041 50.9691C22.2897 50.3711 22.001 49.7938 21.4855 49.6289C20.9701 49.4639 20.3928 49.7526 20.2072 50.3505L19.6093 52.1856L21.5268 52.8041H21.5062Z" fill="#D6006D"/>
<path d="M21.4233 44.1856C18.7635 42.4537 18.0213 38.9073 19.9182 36C21.8151 33.0722 25.3615 32.3506 28.0213 34.0825C30.6811 35.8145 31.4233 39.3609 29.5264 42.2681C27.6295 45.1753 24.0831 45.9176 21.4233 44.1856ZM26.3718 36.598C24.9491 35.6701 23.114 36.0413 22.1862 37.4846C21.2584 38.9279 21.6295 40.7423 23.0728 41.6701C24.4955 42.598 26.3099 42.2268 27.2584 40.7835C28.1862 39.3609 27.8151 37.5464 26.3718 36.598Z" fill="#D6006D"/>
<path d="M35.2378 34.7217L29.7945 28.8042L27.5677 30.8454L25.6914 28.8042L32.2893 22.7217L34.1656 24.7629L31.9388 26.8042L37.3821 32.7217L35.2172 34.7011L35.2378 34.7217Z" fill="#D6006D"/>
<path d="M38.9889 30.9898L37.0508 19.5671L39.9168 17.897L48.8858 25.1959L46.1848 26.763L44.4941 25.3197L41.2363 27.2166L41.6693 29.3815L38.9889 30.9485V30.9898ZM40.6796 24.8042L42.659 23.6496L39.8961 21.1341H39.8343L40.659 24.8042H40.6796Z" fill="#D6006D"/>
<path d="M51.198 18.6186C50.6207 15.5052 52.6826 12.5362 56.1052 11.897C59.5279 11.2784 62.497 13.3197 63.0743 16.4537C63.6516 19.5671 61.5898 22.5362 58.1671 23.1753C54.7444 23.7939 51.7753 21.732 51.198 18.6186ZM60.1052 17.0104C59.796 15.3403 58.2702 14.2681 56.6001 14.5774C54.93 14.8867 53.8578 16.4125 54.1671 18.0826C54.4764 19.7527 56.0021 20.8248 57.6722 20.5155C59.3424 20.2063 60.4145 18.6805 60.1052 17.0104Z" fill="#D6006D"/>
<path d="M68.6406 21.8351L70.7231 11.1959L73.3417 11.7114L75.7953 16.433H75.8159L79.8777 12.9897L82.4344 13.4846L80.352 24.1238L77.4654 23.5464L78.6819 17.3196H78.62L75.0118 20.3918L72.8262 16.1856H72.7643L71.5478 22.4124L68.6612 21.8351H68.6406Z" fill="#D6006D"/>
<path d="M82.207 24.7629L87.6091 15.3608L90.1658 16.8248L88.5369 19.6495L90.0833 20.5361C92.1658 21.732 92.7637 23.9588 91.6916 25.8351C90.6194 27.7114 88.3926 28.3093 86.3101 27.1134L82.207 24.7629ZM86.0833 23.9382L87.4854 24.7423C88.1246 25.1134 88.8256 24.9072 89.1349 24.3505C89.4441 23.7938 89.2792 23.0928 88.64 22.7217L87.238 21.9175L86.0833 23.9382ZM90.7431 29.6495L96.1452 20.2474L98.7019 21.7114L93.2998 31.1134L90.7431 29.6495Z" fill="#D6006D"/>
<path d="M94.8242 32.2269L103.072 25.2166L104.969 27.464L98.8242 32.6599L100.577 34.7217L106.721 29.5258L108.618 31.7733L102.474 36.9691L104.226 39.031L110.371 33.8351L112.268 36.0825L104.02 43.0928L94.8242 32.2475V32.2269Z" fill="#D6006D"/>
<path d="M105.631 53.2371L107.775 52.3712L104.785 44.9897L114.826 40.9279L115.919 43.6495L108.455 46.6598L109.816 50.0413L117.28 47.0309L118.373 49.7526L110.909 52.7629L111.424 54.0619L106.682 55.9794L105.589 53.2578L105.631 53.2371Z" fill="#D6006D"/>
<path d="M108.949 55.5464L120.166 58.433L120.516 61.732L110.186 66.9485L109.856 63.835L111.856 62.8866L111.444 59.134L109.3 58.6392L108.97 55.567L108.949 55.5464ZM113.918 59.6082L114.166 61.8763L117.588 60.3917V60.3299L113.918 59.6082Z" fill="#D6006D"/>
<path d="M110.147 67.3815L115.157 71.6701L120.786 69.3402L120.27 72.6804L116.951 73.9175V73.9794L119.734 76.165L119.219 79.4433L114.621 75.5258L108.477 78.1031L108.992 74.7835L112.827 73.299V73.2371L109.631 70.6598L110.126 67.4021L110.147 67.3815Z" fill="#D6006D"/>
<path d="M17.053 93.3814L26.0014 87.2371L27.6715 89.6701L22.7437 93.0515L22.7849 93.0927L30.2901 93.4845L31.7334 95.5876L22.7849 101.732L21.1148 99.2989L26.022 95.9175L25.9808 95.8762L18.455 95.4639L17.0117 93.3608L17.053 93.3814Z" fill="#D6006D"/>
<path d="M31.196 102.866C33.1135 100.351 36.7011 99.8557 39.464 101.979C41.4228 103.485 41.9589 105.361 42.0619 106.619L39.4022 106.887C39.2372 105.979 38.9485 104.99 37.8145 104.124C36.4331 103.072 34.6186 103.34 33.5877 104.68C32.5568 106.021 32.7836 107.856 34.1444 108.907C35.2784 109.773 36.3506 109.835 37.2991 109.732L37.732 112.371C36.4537 112.598 34.4743 112.557 32.4949 111.052C29.732 108.928 29.2578 105.361 31.1753 102.825L31.196 102.866Z" fill="#D6006D"/>
<path d="M49.467 107.917L52.3536 109.216L45.7969 115.093C44.333 116.412 42.7247 116.928 40.9309 116.144C40.3742 115.897 39.9618 115.546 39.7969 115.381L40.869 112.99C40.9928 113.113 41.2814 113.34 41.6525 113.505C42.4979 113.876 43.1783 113.67 43.5495 113.34L42.9309 105.01L45.9618 106.371L46.1268 111.258H46.1886L49.4257 107.938L49.467 107.917Z" fill="#D6006D"/>
<path d="M50.8265 114.392C51.445 111.278 54.4554 109.278 57.878 109.959C60.311 110.454 61.61 111.918 62.2698 112.99L60.0017 114.392C59.4657 113.649 58.744 112.887 57.3626 112.619C55.6512 112.268 54.1461 113.32 53.7956 114.99C53.445 116.66 54.4554 118.206 56.1667 118.557C57.5688 118.845 58.5584 118.412 59.3626 117.917L60.909 120.103C59.878 120.866 58.0636 121.711 55.6306 121.216C52.2079 120.536 50.2079 117.526 50.8265 114.412V114.392Z" fill="#D6006D"/>
<path d="M66.1438 121.856L65.917 113.814L62.9067 113.897L62.8242 111.113L71.7933 110.866L71.8758 113.649L68.8655 113.732L69.0923 121.773L66.1438 121.856Z" fill="#D6006D"/>
<path d="M73.1992 121.67L74.7044 110.185L77.9209 109.423L84.3539 119.051L81.3023 119.773L80.1271 117.897L76.457 118.763L76.2301 120.969L73.2198 121.67H73.1992ZM76.6219 116.268L78.8487 115.753L76.9518 112.536H76.8899L76.6219 116.268Z" fill="#D6006D"/>
<path d="M87.2371 117.835L82.3711 108.144L86.7216 105.959C88.9278 104.845 90.701 105.423 91.402 106.804C91.8969 107.794 91.6701 108.907 91.0103 109.526C91.8762 109.381 93.4226 109.608 94.1031 111.01C94.8247 112.454 94.2061 114.33 91.9381 115.485L87.2371 117.856V117.835ZM86.8659 110.557L88.3917 109.794C88.969 109.505 89.1134 108.99 88.8659 108.515C88.6185 108.021 88.103 107.856 87.5463 108.144L86.0206 108.907L86.8453 110.577L86.8659 110.557ZM88.8247 114.433L90.701 113.485C91.3195 113.175 91.5257 112.557 91.2577 112C90.9896 111.443 90.3505 111.237 89.7319 111.546L87.8556 112.495L88.8247 114.433Z" fill="#D6006D"/>
<path d="M97.4054 112.515L93.5703 101.608L96.1064 99.4845L106.189 105.175L103.797 107.175L101.9 106.041L99.0136 108.474L99.7971 110.536L97.426 112.515H97.4054ZM98.0239 106.144L99.7765 104.68L96.6425 102.66L96.6012 102.701L98.0239 106.144Z" fill="#D6006D"/>
<path d="M107.96 103.237L105.465 97.1134L99.3828 96.5979L101.362 93.8762L104.888 94.3092L104.929 94.268L103.445 91.0309L105.403 88.3505L107.713 93.9587L114.352 94.4948L112.373 97.2164L108.269 96.7835L108.228 96.8247L109.898 100.598L107.96 103.258V103.237Z" fill="#D6006D"/>
<path d="M68.1232 55.2371C65.9376 56.2474 63.1953 54.9278 61.9788 52.3093C60.7623 49.6907 61.5458 46.7423 63.7314 45.732C65.917 44.7217 68.6592 46.0413 69.8757 48.6598C71.0922 51.2784 70.3087 54.2268 68.1232 55.2371ZM59.7314 38.3711C50.8242 40.6186 44.1025 47.1134 41.1953 55.1547C46.8036 57.6495 53.9376 58.3093 56.8036 58.3093C58.5974 58.3093 60.3293 58.3505 61.9994 58.3093C70.6386 58.0619 73.6695 54.9485 77.0716 51.1959C79.2366 48.8041 81.2984 45.6495 83.051 43.5052C76.7623 38.3918 68.2056 36.2062 59.7314 38.3299V38.3711Z" fill="#D6006D"/>
<path d="M92.0419 57.6701C91.2584 54.5361 89.9182 51.8556 88.1863 49.3196L91.9801 45.0721C91.9801 45.0721 85.279 46 78.3924 55.7113C75.9388 59.1752 75.6914 61.8969 75.6914 62.4536V88.9484C87.9801 84.1237 95.3615 70.8247 92.0419 57.6701Z" fill="#D6006D"/>
<path d="M73.4847 97.0928C73.4847 97.0928 70.7218 80.7011 70.5569 79.6083C70.4744 79.0722 70.2888 78.1237 69.3197 77.9175C68.1857 77.6701 67.4228 78.9485 66.9692 79.6495L60.5156 90.1856C63.4435 90.8248 66.6187 90.9279 69.6909 90.5361C69.6909 90.5361 69.8146 91.0309 69.9383 91.7732C70.6187 96.0825 73.4847 97.1134 73.4847 97.1134V97.0928Z" fill="#D6006D"/>
<path d="M61.0095 62.4536C64.8033 63.0103 66.1229 66.6185 63.6693 72.9484C62.1229 76.9484 56.7208 89.6288 55.9992 91.3196C55.1126 93.3814 53.7517 96.6391 50.7827 97.1134L54.3703 88.1855C47.6074 84.866 42.4321 78.5773 40.4321 70.701C39.9785 68.9072 39.7311 67.1134 39.6486 65.3402L33.793 65.0309C41.6074 59.6701 61.0095 62.4536 61.0095 62.4536Z" fill="#D6006D"/>
</g>
<defs>
<clipPath id="clip0_633_4343">
<rect width="132" height="132" fill="white"/>
</clipPath>
</defs>
</svg>
