<svg width="85" height="85" viewBox="0 0 85 85" fill="none" xmlns="http://www.w3.org/2000/svg">
<g clip-path="url(#clip0_3001_2879)">
<path fill-rule="evenodd" clip-rule="evenodd" d="M8.11089 36.8152C11.495 38.2136 15.0316 37.6968 17.0743 35.1735L25.1841 38.7304L33.1109 42.2265L40.0316 45.2665L38.0499 49.7658C37.7755 50.4346 38.995 51.5898 39.6658 51.8634L40.7938 52.3195C41.3121 52.5323 42.3487 52.5931 42.9889 52.3195C43.2024 52.2282 43.3548 52.1066 43.4158 51.9242L45.1231 47.4858L49.2389 49.2794C49.9097 49.553 51.0682 48.337 51.3426 47.6682L51.7999 46.5433C52.0743 45.8745 52.1353 44.2025 51.4341 43.9289L47.1048 42.2873L55.9767 19.0004C56.7389 19.0612 57.4706 18.9396 58.1414 18.7268C60.2146 18.0884 61.9219 16.3556 62.8975 13.9843C66.1902 5.98898 66.678 4.31695 64.0255 2.85772L60.0316 12.0387C59.9402 12.2515 59.7572 12.4339 59.5438 12.5251C59.3609 12.6163 59.1475 12.6163 58.9646 12.5251L58.7206 12.4339C58.5377 12.3427 58.3853 12.2211 58.3243 12.0083C58.2328 11.7955 58.2328 11.5523 58.3243 11.3091L61.4341 1.7025C61.2206 1.6113 61.0377 1.5505 60.8243 1.4593C60.4585 1.30729 60.1231 1.15529 59.7877 1.03369L55.1841 10.0931C55.1231 10.2755 54.9402 10.4579 54.7267 10.5491C54.5438 10.6403 54.3304 10.6403 54.1475 10.5491L53.9036 10.4579C53.7206 10.3667 53.5682 10.2451 53.5072 10.0323C53.4158 9.81945 53.4158 9.57625 53.5072 9.36344L57.0743 0.121671C54.3914 -0.516741 53.6597 1.24649 50.4889 8.96824C49.4219 11.5219 49.5133 14.1971 50.8243 16.1732C51.1902 16.7508 51.678 17.2676 52.2572 17.6932L42.1658 40.4936L34.8487 37.7272L26.9828 34.7479L18.6292 31.5863C19.056 28.2726 16.8914 25.3541 13.4463 23.9557C9.39138 22.2837 1.98284 22.0709 0.306014 26.1142C-1.37082 30.1878 4.02553 35.2039 8.11089 36.876M15.0011 20.8245C16.1292 21.6757 17.745 21.5541 18.7206 20.5205C24.5438 14.3187 32.6841 10.3363 41.7085 9.88025V13.2547C41.7085 14.1059 42.2877 14.8659 43.1109 15.018C44.178 15.2004 45.0926 14.3795 45.0926 13.3459V6.11058V3.76974C45.0926 2.97932 44.4524 2.31051 43.6597 2.31051C31.3121 2.24971 20.2146 7.60021 12.5926 16.1124C11.7389 17.0548 11.8304 18.4532 12.867 19.2132L15.0011 20.8245ZM43.4463 42.7433C44.0865 42.7129 44.6048 43.1689 44.6353 43.7769C44.6963 44.3849 44.2085 44.9321 43.5987 44.9625C42.9585 44.9929 42.4402 44.5369 42.3792 43.9289C42.3487 43.3209 42.806 42.7737 43.4158 42.7433H43.4463Z" fill="#3E0097"/>
<path d="M71.3113 12.9811C70.5186 12.2515 69.2381 12.4035 68.6283 13.2851C67.8966 14.3187 67.104 15.4131 66.3418 16.4468C65.793 17.1764 65.9454 18.1796 66.6161 18.7876C72.9576 24.6549 77.0735 32.9239 77.4698 42.1048L74.2076 42.0136C73.171 42.0136 72.3479 42.8649 72.4698 43.9289C72.5918 44.7497 73.354 45.3577 74.1771 45.3881L77.4393 45.4793C77.4393 45.4793 77.4393 45.7833 77.4393 45.9049C76.3418 62.078 63.5369 75.4543 47.3783 77.2479C46.6771 77.3391 45.9759 77.3695 45.2747 77.3999L45.3661 74.4511C45.3661 73.6302 44.8783 72.8094 44.0552 72.6574C43.0186 72.4446 42.0125 73.2046 41.982 74.2383L41.8905 77.3999C24.6039 76.5791 10.671 62.7772 9.63443 45.6009H12.8661C13.7198 45.6009 14.482 45.0233 14.6344 44.2025C14.8174 43.1385 13.9942 42.2265 12.9576 42.2265H9.60394H3.56736C2.74419 42.2265 2.04297 42.8953 2.04297 43.7161C2.10394 67.8845 23.0796 87.2193 47.8052 84.7265C67.3174 82.7504 83.0186 66.9421 84.7869 47.4249C86.0369 33.7751 80.5491 21.2805 71.3113 12.9203" fill="#3E0097"/>
</g>
<defs>
<clipPath id="clip0_3001_2879">
<rect width="85" height="85" fill="white"/>
</clipPath>
</defs>
</svg>
