<svg width="84" height="84" viewBox="0 0 84 84" fill="none" xmlns="http://www.w3.org/2000/svg">
<g clip-path="url(#clip0_3001_6157)">
<path d="M28.5255 73.8996C15.9191 68.7772 7.02402 56.3548 7.08537 41.908C7.08537 36.2029 8.52698 30.8046 10.9808 26.0503C9.56984 23.5965 8.09756 21.3881 6.68662 19.425C2.48448 25.9276 0 33.6878 0 42.0001C0 59.9742 11.4409 75.2491 27.452 81.0156C27.9427 79.0219 28.4028 76.5987 28.5255 73.8996Z" fill="#3E0097"/>
<path d="M39.1685 18.7502C37.9109 23.2897 40.0886 28.2894 44.0761 29.9457C48.0635 31.602 52.2963 29.2709 53.5846 24.7313C54.8421 20.1918 52.6644 15.1922 48.6769 13.5359C44.6895 11.8795 40.4567 14.2106 39.1685 18.7502Z" fill="#3E0097"/>
<path d="M63.7383 7.00254C62.9101 18.198 58.8306 49.5147 39.4149 35.4054C39.4456 35.4054 39.5069 35.4054 39.5376 35.4667C37.5439 34.3318 35.4275 32.7675 33.127 30.5591C27.7286 25.4061 22.0235 21.296 16.7785 18.0447C23.0664 11.5728 31.8388 7.55465 41.5927 7.58532C48.0032 7.58532 53.9844 9.36433 59.1067 12.4316C60.3643 10.5606 61.5912 8.53617 62.634 6.35842C56.4382 2.67771 49.2301 0.530631 41.5006 0.530631C28.3114 0.499958 16.5638 6.69582 8.95703 16.2963C24.0786 27.7679 47.3898 51.1097 35.6422 79.6352C34.2926 80.7087 33.1577 81.5676 31.9921 82.3651C35.0594 83.0705 38.2187 83.5 41.5006 83.5C64.4131 83.5 83.0006 64.9124 83.0006 42C83.0006 27.2771 75.3018 14.364 63.7383 7.00254ZM41.4086 76.4146C40.7952 76.4146 40.2124 76.4146 39.6296 76.3532C60.9471 57.5816 64.7811 32.1234 64.9038 16.7258C71.7131 23.0443 75.9766 32.062 75.9459 42.092C75.8846 61.109 60.4256 76.4759 41.4086 76.4146Z" fill="#3E0097"/>
</g>
<defs>
<clipPath id="clip0_3001_6157">
<rect width="83" height="83" fill="white" transform="translate(0 0.5)"/>
</clipPath>
</defs>
</svg>
