<svg width="400" height="1542" viewBox="0 0 400 1542" fill="none" xmlns="http://www.w3.org/2000/svg">
<path d="M104.055 35.0959C5.75093 31.8986 -71.2836 44.6315 -97.5129 51.3976C-101.397 200.262 -110.082 1354.05 -113.753 1494.73C113.91 1579.6 334.796 1483.68 434.222 1461.5C513.762 1443.75 653.825 1473.47 713.914 1490.54L728.401 36.1952C697.586 57.1977 653.84 107.53 540.086 107.329C442.449 107.158 226.935 39.0926 104.055 35.0959Z" fill="#3C0C86"/>
<path d="M110.015 49.5144C16.0931 50.5873 -57.1282 66.0545 -81.9986 73.654C-81.9986 216.703 -85.5938 1357.11 -85.5938 1493.13C135.848 1565.45 346.218 1463.45 441.438 1437.81C517.614 1417.3 653.283 1440.06 711.596 1454L708.001 36.1035C679.108 57.5609 602.668 100.476 528.057 100.476C434.793 100.476 227.418 48.1733 110.015 49.5144Z" fill="#FFFEFE"/>
</svg>
