<svg width="768" height="1543" viewBox="0 0 768 1543" fill="none" xmlns="http://www.w3.org/2000/svg">
<path d="M156.27 8.17199C46.5492 4.6033 -39.4321 18.815 -68.7077 26.367C-73.0428 192.52 -82.7371 1316.16 -86.8338 1473.17C167.27 1567.9 413.81 1460.84 524.783 1436.08C613.561 1416.28 769.891 1449.44 836.959 1468.5L853.128 9.39888C818.734 32.8407 769.908 89.0183 642.942 88.7947C533.965 88.6028 293.422 12.6329 156.27 8.17199Z" fill="#3C0C86"/>
<path d="M162.773 23.9733C57.9134 25.1711 -23.8349 42.4404 -51.6016 50.9252V1473.5C193.398 1553.74 426.148 1440.56 531.498 1412.11C615.779 1389.35 765.882 1414.6 830.398 1430.08V9C798.14 32.9573 712.798 80.8718 629.498 80.8718C525.373 80.8718 293.848 22.476 162.773 23.9733Z" fill="#FFFEFE"/>
</svg>
