<svg width="1440" height="1035" viewBox="0 0 1440 1035" fill="none" xmlns="http://www.w3.org/2000/svg">
<path d="M339.107 49.2997C159.995 44.8083 19.636 62.6944 -28.1543 72.1989L-57.7439 946.547C357.063 1065.76 759.521 931.026 940.677 899.866C1085.6 874.938 1340.8 916.678 1450.28 940.664L1476.68 50.8438C1420.53 80.3463 1340.83 151.048 1133.56 150.767C955.667 150.525 562.996 54.9139 339.107 49.2997Z" fill="#3C0C86"/>
<path d="M350 69.8076C178.8 71.3146 45.3333 93.0416 0 103.717V943.908C400 1044.86 780 902.463 952 866.67C1089.6 838.036 1334.67 869.81 1440 889.276V50.9692C1387.33 81.1106 1248 141.393 1112 141.393C942 141.393 564 67.9237 350 69.8076Z" fill="#FFFEFE"/>
</svg>
