<svg width="1920" height="1108" viewBox="0 0 1920 1108" fill="none" xmlns="http://www.w3.org/2000/svg">
<path d="M473.52 55.8976C241.673 49.2719 60.2018 66.6855 -1.55272 76.2205L-31.1423 999.271C506.878 1129.53 1026.39 991.47 1260.53 960.467C1447.84 935.665 1778.52 982.427 1920.45 1008.91L1945.76 69.4842C1873.39 100.05 1770.94 173.878 1502.7 171.403C1272.47 169.278 763.329 64.1796 473.52 55.8976Z" fill="#3C0C86"/>
<path d="M461.368 81.8788C232.269 83.4695 53.6648 106.402 -7 117.669V1004.46C528.278 1111.02 1036.79 960.718 1266.96 922.94C1451.1 892.718 1779.04 926.254 1920 946.8V61.9956C1849.52 93.8088 1663.07 157.435 1481.07 157.435C1253.58 157.435 747.742 79.8905 461.368 81.8788Z" fill="#FFFEFE"/>
</svg>
