<svg width="83" height="84" viewBox="0 0 83 84" fill="none" xmlns="http://www.w3.org/2000/svg">
<path d="M31.196 12.7791C30.8823 12.5272 30.6162 12.3125 30.3406 12.0979C28.644 10.7728 28.3446 9.74164 29.4091 7.86129C30.6209 5.72431 31.9278 3.63866 33.306 1.60433C34.2185 0.260552 35.5919 -0.364677 37.2267 0.218559C40.0829 1.23572 42.9153 2.32287 45.7382 3.42402C46.9501 3.89528 48.1429 4.42252 49.293 5.01509C51.0418 5.92028 52.0921 7.46468 53.0521 9.10708C56.2742 14.6268 59.3965 20.2166 62.823 25.615C66.3967 31.2374 68.6351 37.2191 69.1293 43.8353C69.2196 45.0251 69.4715 46.2289 69.8327 47.3674C70.7404 50.2229 70.0038 52.6118 67.7607 54.5155C66.5726 55.5233 65.2704 56.4659 63.8732 57.1564C59.1399 59.4893 54.4018 61.8316 49.5496 63.9126C43.1909 66.6422 36.5186 67.2347 29.6847 66.0636C28.6772 65.8909 27.5082 65.387 26.7002 65.7183C25.9731 66.0123 25.6405 67.2394 25.1415 68.0606C24.2765 69.4837 24.267 69.5023 22.9696 68.5365C13.8641 61.7756 9.3874 52.8078 9.67729 41.5817C9.6963 40.8071 9.80085 40.0326 9.88164 39.2581C10.0907 37.275 10.086 37.2144 12.0725 36.9344C17.186 36.2206 21.7911 37.4757 25.9066 40.5132C26.0919 40.6485 26.2488 40.8258 26.4626 41.0218C25.726 42.1416 25.0037 43.2381 24.2956 44.3392C24.1055 44.6332 23.8678 44.9504 23.8346 45.2771C23.7871 45.7483 23.9059 46.2382 23.9486 46.7188C24.3383 46.4389 24.8944 46.2429 25.0892 45.865C27.9454 40.3639 32.4268 37.4244 38.776 37.5737C41.7415 37.6437 44.398 38.7681 46.7219 40.5692C47.1021 40.8631 47.2922 41.3857 47.5964 41.7823C48.6134 43.1074 49.6019 44.4559 50.6997 45.7156C50.923 45.9723 51.5789 45.8696 52.0303 45.9303C51.9163 45.529 51.9305 44.9878 51.6644 44.7451C48.1096 41.5443 47.4586 37.415 47.7295 33.0011C47.8245 31.4893 48.0003 29.9776 48.2807 28.4892C49.0601 24.4205 48.0716 20.6178 46.5936 16.8851C46.0281 15.4527 45.6717 15.532 44.1652 16.0173C42.8155 16.4559 41.2662 16.8525 39.9213 16.6192C38.0774 16.3019 36.4093 16.5678 34.6652 16.9411C33.9191 17.0997 33.0732 17.1977 32.3508 17.0251C30.4926 16.5818 29.9033 15.0701 30.8205 13.4184C30.9298 13.2224 31.0392 13.0218 31.1722 12.7791H31.196ZM37.0984 55.8919C40.9288 55.8173 44.1129 54.5622 46.6934 51.9679C46.9881 51.674 47.0166 51.1234 47.1734 50.6941C46.7077 50.8295 46.1849 50.8715 45.7857 51.1141C44.5216 51.8933 43.3953 52.9198 42.0599 53.5403C38.0251 55.4254 34.0759 54.5948 30.179 52.9384C29.8225 52.7891 29.3045 53.0038 28.8626 53.0504C29.1097 53.3957 29.276 53.8996 29.6134 54.0676C32.0086 55.2434 34.5749 55.8173 37.0937 55.8826L37.0984 55.8919Z" fill="#3E0097"/>
<path d="M27.4208 5.61666C26.304 8.07091 25.4201 10.4225 27.2687 12.8068C25.2632 13.9779 23.291 14.9671 21.4946 16.2082C13.4346 21.77 8.43989 29.352 7.29932 38.9544C5.78807 51.6596 10.5072 62.0786 20.6915 69.9733C27.7487 75.4417 35.9228 77.7233 44.9 76.9394C59.2141 75.689 72.1928 64.3555 75.1963 50.5585C78.2806 36.3929 72.5445 23.0111 60.0363 15.1164C59.3995 14.7151 58.7769 14.1412 58.4015 13.5067C56.8427 10.8518 55.379 8.1409 53.882 5.44402C53.8107 5.31804 53.7917 5.16407 53.7441 4.99609C68.6951 8.88278 84.1925 24.3782 82.9284 45.398C81.593 67.5517 62.1083 84.6102 40.2617 83.9849C19.7077 83.3924 0.845611 66.6931 0.0282051 44.3669C-0.342479 34.2979 2.94615 25.3394 9.56619 17.6127C14.3661 12.0043 20.2875 7.9636 27.4256 5.61666H27.4208Z" fill="#3E0097"/>
</svg>
